<?xml version="1.0" encoding="utf-8"?>
<!-- Generator: Adobe Illustrator 21.0.2, SVG Export Plug-In . SVG Version: 6.00 Build 0)  -->
<svg version="1.1" id="Layer_1" xmlns="http://www.w3.org/2000/svg" xmlns:xlink="http://www.w3.org/1999/xlink" x="0px" y="0px"
	 viewBox="0 0 647 254" style="enable-background:new 0 0 647 254;" xml:space="preserve">
<style type="text/css">
	.st0{fill:#FEFEFE;}
	.st1{fill:#FF0000;}
</style>
<g id="_x23_fefefefe">
	<path class="st0" d="M90.1,18.5c26.7-1,53.3-2.5,79.9-3.6c1.9-0.4,4.7,0.8,4.4,3.1c0,1.8-1.5,2.8-2.7,3.8
		c-19.9,16.4-39.8,32.9-59.7,49.3c-1.5,1.1-3,2.7-5.1,2.6c-14.5,0.8-29.1,1.4-43.6,2.2c2.4-2.7,5.2-5.1,7.8-7.5
		c9.1-8.3,17.9-16.9,27.4-24.6c3.5-2.6-0.4-8.6-4.2-6.5c-6.4,5-12.3,10.6-18.3,16c-7,6-13.6,12.4-19.9,19.1c-3.2,3.4-5.5,8-5.3,12.7
		c0,4.3,1.1,8.5,2.1,12.6c3,1.1,6.3,3.1,6.8,6.5c0.6,2.3-0.3,4.6-1.2,6.7c3.7,6.1,6.9,12.6,9.1,19.4c1.9,6.9,1.1,15.9-5.2,20.3
		c-4.9,1.1-10-0.1-14.8-1.2c2.6-6.2,5-12.5,5.3-19.3c0.4-5.2-0.5-10.3-1.5-15.4c-2.9-0.8-6-2.1-7.2-5.1c-1.8-3.2-0.7-7.1,1.4-9.9
		c-2.2-7.4-3.6-15.4-1.3-23c-6.5,0.2-12.9,0.6-19.4,0.6c-1.7,0.1-2.5-1.9-2.8-3.2c0.5-1.9,2.2-3,3.6-4.3c19-15.7,38-31.3,56.9-47
		C85.1,21.1,87,18.4,90.1,18.5z"/>
	<path class="st0" d="M116,78.9c12.8-10.8,25.9-21.2,38.7-31.9c2.6,7.1,5.5,14.1,8.1,21.2c2,4.9-0.8,10-3.7,13.8
		c-6.9,8.4-16.1,14.5-25.7,19.4c-13.8,6.9-28.9,11.8-44.4,12.6c-6,0-12.8,0.3-17.9-3c3-7.5-2.1-16.5-10.1-17.9
		c-0.8-2.9-1.7-5.9-2.1-8.9c16.4-0.7,32.7-1.5,49.1-2.2C111,82.2,113.7,80.8,116,78.9z"/>
	<path class="st0" d="M277,65.9c-0.2-2.1,0.7-4.7,3.2-4.8c5-0.3,9.9-0.1,14.9-0.1c2-0.2,4.5,1,4.6,3.2c0.3,4,0.1,8,0.1,12
		c-2.2,0-4.5,0-6.7,0c0-3.1,0-6.2,0-9.3c-3.1,0-6.2,0-9.3,0c0,11.7,0,23.3,0,35c3.1,0,6.2,0,9.3,0c0-3.3,0-6.7,0-10
		c2.2,0,4.5,0,6.7,0c-0.1,4.3,0.2,8.5-0.1,12.8c-0.1,2.3-2.5,3.4-4.6,3.2c-5-0.1-10,0.2-14.9-0.1c-2-0.2-3.1-2.1-3.1-4
		C277,91.3,277,78.6,277,65.9z"/>
	<path class="st0" d="M360.3,61.3c2.2,0,4.5,0,6.7,0c0,15.5,0.1,31,0,46.5c-2.2-0.1-4.4,0-6.5-0.4c-3.5-0.9-7.3,1.9-10.7-0.2
		c-2-0.9-2.5-3.2-2.5-5.2c0-6,0-11.9,0-17.9c-0.1-2.5,1.4-5.2,4-5.9c2.9-0.6,6-0.2,9-0.3C360.3,72.4,360.3,66.8,360.3,61.3
		 M354.2,83.9c-0.3,6.1-0.5,12.2,0.1,18.3c2,0.1,4-0.1,5.9-0.2c0-6.1,0-12.2,0-18.3C358.2,83.7,356.2,83.8,354.2,83.9z"/>
	<path class="st0" d="M416,61c6.3,0,12.7,0,19,0c0,2.1,0,4.2,0,6.3c-4.1,0-8.2,0-12.3,0c0,4.6,0,9.2,0,13.7c3.5,0,7,0,10.5,0
		c0,2,0,4,0,6c-3.5,0-7,0-10.5,0c0,7,0,14,0,21c-2.3,0-4.5,0-6.7,0C416,92.3,416,76.7,416,61z"/>
	<path class="st0" d="M515,69.7c2.2,0,4.5,0,6.7,0c0,2.8,0,5.5,0,8.3c1.4,0,2.8,0,4.3,0c0,1.9,0,3.8,0,5.7c-1.4,0-2.8,0-4.3,0
		c0,6.2,0,12.3,0,18.5c1.5,0,3,0,4.5,0.1c0,1.9,0,3.8,0,5.7c-3.5-0.7-9.2,1.8-11.1-2.3c-0.4-7.3,0-14.7-0.2-22c-0.8,0-2.5,0-3.3,0
		c0-1.9,0-3.8,0-5.7c0.8,0,2.4,0,3.3,0C515,75.2,515,72.5,515,69.7z"/>
	<path class="st0" d="M316.3,78.2c4.5-0.5,9.2-0.1,13.7-0.2c1.9-0.2,4,1,3.9,3.1c0.1,7.6,0,15.3,0,22.9c0.2,1.9-1,4-3.1,3.9
		c-4.6,0.1-9.2,0.1-13.8,0c-1.6,0-2.9-1.5-2.8-3.1c-0.2-7.3,0-14.6-0.1-21.8C314.3,81.3,314.2,78.8,316.3,78.2 M320.8,83.7
		c0,6.2,0,12.3,0,18.5c2.3,0,4.5,0,6.8,0c0-6.2,0-12.3,0-18.5C325.3,83.7,323,83.7,320.8,83.7z"/>
	<path class="st0" d="M381.3,81.2c-0.1-1.8,1.1-2.9,2.8-3c4-0.3,7.9-0.1,11.9-0.2c1.7,0.1,4.3,0.2,4.4,2.4c0.5,3.5,0.2,7,0.2,10.5
		c0.2,1.4-0.9,2.3-1.6,3.4c-3.8,0-7.6,0-11.4,0c0,2.9,0,5.8,0,8.7c2.2,0,4.4,0,6.5,0c0-1.7,0-3.3,0-5c2.2,0,4.3,0,6.5,0
		c-0.2,3,0.6,6.2-0.8,9c-3.7,1.8-8.1,0.6-12,1c-2.4,0-6.8,0.3-6.6-3.2C381.2,96.9,381.2,89.1,381.3,81.2 M387.7,83c0,2.3,0,4.7,0,7
		c2.2,0,4.3,0,6.5,0c0-2.3,0-4.7,0-7C392.1,83,389.9,83,387.7,83z"/>
	<path class="st0" d="M448.4,78.4c3.8-0.8,7.8-0.2,11.7-0.4c2.2-0.1,5.9,0.1,5.6,3.2c0.1,8.9,0,17.9,0.1,26.8
		c-2.4,0-4.9,0.2-7.2-0.7c-3.9-1.1-9,2.7-12-1c-0.4-5-0.9-10.4,0.3-15.4c3.9-1.9,8.5-0.6,12.6-1c0-2.3,0-4.7,0-7c-2.3,0-4.5,0-6.8,0
		c0,1.4,0,2.8,0,4.3c-2,0-4,0-6,0C447.2,84.4,445.4,80.2,448.4,78.4 M452.8,94.5c0,2.8,0,5.5,0,8.3c2.3-0.1,4.5-0.2,6.8-0.3
		c0-2.7,0-5.3,0-8C457.3,94.5,455,94.5,452.8,94.5z"/>
	<path class="st0" d="M479.3,81.2c-0.3-2.6,2.5-3.5,4.6-3.2c4.5,0.3,9.2-0.7,13.5,0.6c2.5,2.7,0.9,6.9,1.3,10.2c-2.2,0-4.3,0-6.5,0
		c0-1.7,0-3.3,0-5c-2.2,0-4.3,0-6.5,0c0,6.2,0,12.3,0,18.5c2.2,0,4.3,0,6.5,0c0-1.9,0-3.8,0-5.8c2.2,0,4.3,0,6.5,0
		c-0.1,3.3,0.3,6.6-0.3,9.8c-1,2-3.5,1.6-5.3,1.7c-3.9-0.1-7.9,0.3-11.8-0.3c-2.1-0.6-2-3-2-4.7C479.3,95.8,479.2,88.5,479.3,81.2z"
		/>
	<path class="st0" d="M540.3,78.2c4.8-0.5,9.8-0.2,14.6-0.2c2.1-0.1,3.3,2,3.1,3.9c0,7.6,0.1,15.3,0,22.9c0.1,1.6-1.4,3.1-3,3
		c-4.6,0.1-9.2,0.1-13.8,0c-1.6,0-2.9-1.5-2.8-3.1c-0.2-7.3,0-14.6-0.1-21.8C538.3,81.3,538.2,78.8,540.3,78.2 M544.8,83.7
		c0,6.2,0,12.3,0,18.5c2.3,0,4.5,0,6.8,0c0-6.2,0-12.3,0-18.5C549.3,83.7,547,83.7,544.8,83.7z"/>
	<path class="st0" d="M572.3,78c2.4,0.1,4.9-0.3,7.2,0.7c3.5,1,8.2-2.6,11.1,0.8c1,3.6,0.3,7.5,0.5,11.3c-2.3,0-4.5,0-6.7,0
		c0-2.4,0-4.7,0-7.1c-1.8,0.1-3.5,0.2-5.3,0.3c0,8,0,16,0,24c-2.3,0-4.5,0-6.7,0C572.3,98,572.3,88,572.3,78z"/>
	<path class="st0" d="M603.9,78c2.3,0,4.7,0,7,0c1.3,6.4,2.5,12.9,3.9,19.3c1.5-6.4,2.6-12.9,4-19.3c2.3,0,4.6,0,6.9,0
		c-3.4,13.7-7,27.3-10.3,41c-2.3,0-4.7,0-7,0c1-3.7,2.2-7.3,3-11C609.3,97.9,606.3,88,603.9,78z"/>
	<path class="st0" d="M277.9,124.7c1.7,0,3.4,0,5.1,0c1.2,7.8,2.5,15.7,3.8,23.5c1.4-7.6,2.4-15.3,3.9-22.9c1.1-1.4,3.4-0.3,5-0.7
		c-2.2,11.1-4.2,22.2-6.4,33.3c-1.6,0-3.3,0-4.9-0.1C282.1,146.9,280,135.8,277.9,124.7z"/>
	<path class="st0" d="M348,128c1.7,0,3.3,0,5,0c0,1.7,0,3.3,0,5c-1.7,0-3.3,0-5,0C348,131.3,348,129.7,348,128z"/>
	<path class="st0" d="M348,136c1.7,0,3.3,0,5,0c0,7.3,0,14.7,0,22c-1.7,0-3.3,0-5,0C348,150.7,348,143.3,348,136z"/>
	<path class="st0" d="M407.4,136.4c4.3-0.4,8.9-1,13,0.2c1.1,3.2,0.5,6.8,0.5,10.1c-2.2,2.5-6.2,0.7-9.2,1.3c0,2.2,0,4.4,0,6.5
		c1.5,0,3,0,4.5,0c0-1.3,0-2.5,0-3.8c1.6,0,3.2,0,4.8,0c0,2.3,0,4.6-0.5,6.9c-4.4,0.6-8.8,0.6-13.2,0
		C406.8,150.6,406.8,143.4,407.4,136.4 M411.7,139.5c0,1.8,0,3.7,0,5.5c1.5,0,3,0,4.5,0c0-1.8,0-3.7,0-5.5
		C414.8,139.5,413.2,139.5,411.7,139.5z"/>
	<path class="st0" d="M474,135.9c4.2,0.6,8.4,0.5,12.7,0.3c0.3,0.3,0.8,0.9,1.1,1.2c0.6,6.8,0.1,13.8,0.3,20.6c-1.7,0-3.3,0-5,0
		c0-5.9,0-11.8,0-17.7c-1.3,0-2.7,0-4,0c0,5.9,0,11.8,0,17.7c-1.7,0-3.3,0-5,0C474,150.6,474,143.3,474,135.9z"/>
	<path class="st0" d="M542,135.9c4.2,0.6,8.4,0.5,12.7,0.3c0.3,0.3,0.8,0.9,1.1,1.2c0.7,6.8,0.1,13.8,0.3,20.6c-1.7,0-3.3,0-5,0
		c0-5.9,0-11.8,0-17.7c-1.3,0-2.7,0-4,0c0,5.9,0,11.8,0,17.7c-1.7,0-3.3,0-5,0C542,150.6,542,143.3,542,135.9z"/>
	<path class="st0" d="M610.6,136.4c4.3-0.6,8.7-0.6,13,0c0.8,7.1,0.3,14.3,0.3,21.4c-3-0.1-6-0.6-9-0.1c-1.5,0.1-3.9,0.8-4.8-1
		c-0.5-3.7-0.4-7.6,0.2-11.3c2.9-0.5,5.9-0.4,8.9-0.4c0-1.8,0-3.7,0-5.5c-1.5,0-3,0-4.5,0c0,0.9,0,2.7,0,3.6c-1.5,0-3-0.1-4.5-0.1
		C610.2,140.8,610.3,138.6,610.6,136.4 M614.7,148.3c0,2,0,4.1,0,6.1c1.5-0.1,3-0.3,4.5-0.4c0-1.9,0-3.8,0-5.7
		C617.8,148.3,616.2,148.3,614.7,148.3z"/>
	<path class="st0" d="M400.3,183.7c1.2,0,2.5,0,3.7,0c0,8.4,0,16.9,0,25.4c-2.6-0.3-5.3-0.5-7.9-0.2c-1.6,0.3-3-1.4-2.8-3
		c-0.1-3.5-0.2-7,0.1-10.5c0.5-3.2,4.6-2.2,6.8-2.5C400.3,189.9,400.3,186.8,400.3,183.7 M397.1,196.2c-0.1,3.2-0.1,6.3-0.1,9.5
		c0.8,0,2.4,0,3.2,0.1c0-3.3,0-6.6,0-9.9C399.5,196,397.9,196.1,397.1,196.2z"/>
	<path class="st0" d="M431.3,184.3c2-0.2,4.1-0.3,6.2-0.4c0,0.8,0.1,2.4,0.1,3.2c-0.7,0.1-2.1,0.3-2.8,0.4c0.4,2.1-1.2,6.1,2.3,5.8
		c0,0.7,0,2,0,2.7c-0.6,0.1-1.8,0.4-2.3,0.6c0.1,4.1,0,8.3,0,12.5c-1.3,0-2.5,0-3.8,0c0-4,0-8.1,0-12.1c-2-0.9-2.9-4,0-4.3
		C431,189.8,430.9,187,431.3,184.3z"/>
	<path class="st0" d="M579.2,187c1.3,0,2.5,0,3.8,0c0,1.3,0,2.5,0,3.8c-1.2,0-2.5,0-3.7,0C579.3,189.5,579.2,188.3,579.2,187z"/>
	<path class="st0" d="M481.4,188.5c1.2,0,2.4,0.1,3.6,0.1c0,1.4,0,2.8,0,4.2c3.3-0.4,3,3.8,0,3.9c0,2.9,0,5.9,0,8.8
		c2.5-0.3,2.6,1.6,2.6,3.6c-2-0.1-4.1-0.1-6.1-0.4c-0.4-3.9-0.1-7.7-0.3-11.6c-0.5-0.5-1.5-1.6-2-2.2
		C480.8,193.1,481.6,190.9,481.4,188.5z"/>
	<path class="st0" d="M608.3,192.7c3.2,0.3,6.4,0.3,9.6,0.1c1.5,0.9,1.1,2.7,1.2,4.2c0,4,0,8,0,12.1c-1.3,0-2.5,0-3.8,0
		c0-4.5,0-8.9,0-13.3c-0.8,0.1-2.4,0.3-3.3,0.4c0,4.3,0,8.7,0,13c-1.3,0-2.5,0-3.8,0C608.3,203.5,608.2,198.1,608.3,192.7z"/>
	<path class="st0" d="M277.5,192.8c0.9,0,2.7,0,3.5,0c0.5,3.3,1.1,6.6,1.8,9.9c0.9-3.2,0.8-6.6,2-9.7c0.6-0.1,1.8-0.3,2.4-0.4
		c0.7,3.5,1.2,7.1,1.9,10.6c0.6-3.5,1.2-6.9,1.8-10.4c0.9,0,2.7,0,3.6,0c-1.2,5.4-2.3,10.8-3.5,16.3c-1.1,0-2.1,0-3.2,0
		c-0.5-2.8-1.1-5.6-1.7-8.3c-0.8,2.8-1.2,5.6-1.8,8.4c-0.8,0-2.4,0-3.2,0C279.9,203.6,278.6,198.2,277.5,192.8z"/>
	<path class="st0" d="M300.5,192.8c0.9,0,2.7,0,3.5,0c0.5,3.3,1.1,6.6,1.8,9.9c0.9-3.2,0.8-6.6,2.1-9.7c0.6-0.1,1.8-0.3,2.4-0.4
		c0.7,3.5,1.2,7.1,1.9,10.6c0.6-3.5,1.2-6.9,1.8-10.4c0.9,0,2.7,0,3.6,0c-1.2,5.4-2.3,10.8-3.5,16.3c-1.1,0-2.1,0-3.2,0
		c-0.5-2.8-1.1-5.7-1.8-8.5c-0.7,2.8-1.2,5.6-1.8,8.5c-0.8,0-2.4,0-3.2,0C302.9,203.6,301.6,198.2,300.5,192.8z"/>
	<path class="st0" d="M323.5,192.8c0.9,0,2.7,0,3.5,0c0.5,3.3,1.1,6.6,1.8,9.9c0.9-3.2,0.8-6.6,2-9.7c0.6-0.1,1.8-0.3,2.4-0.4
		c0.7,3.5,1.2,7.1,1.9,10.6c0.6-3.5,1.2-6.9,1.8-10.4c0.9,0,2.7,0,3.6,0c-1.2,5.4-2.3,10.8-3.5,16.3c-1.1,0-2.2,0-3.2,0
		c-0.5-2.8-1.1-5.7-1.8-8.5c-0.7,2.8-1.2,5.7-1.8,8.5c-0.8,0-2.4,0-3.2,0C325.9,203.6,324.6,198.2,323.5,192.8z"/>
	<path class="st0" d="M357.5,193.6c3.2-1.2,6.9-0.5,10.2-0.3c0.2,1.8,0.3,3.6,0.3,5.4c-1.3,0-2.5,0-3.8,0.1c0-0.7-0.1-2.1-0.1-2.8
		c-0.8,0-2.4,0-3.2,0c0,3.3,0,6.7,0,10c0.8,0,2.4,0,3.3,0c0-0.8,0-2.3,0-3c1.3,0,2.5,0,3.8,0c0,1.9-0.1,3.8-0.3,5.7
		c-3.4,0.4-6.8,0.4-10.2,0C357.2,203.7,357,198.6,357.5,193.6z"/>
	<path class="st0" d="M375.5,193.3c3.4-0.4,6.9-0.4,10.3,0c0.4,5.1,0.4,10.3,0,15.5c-3.4,0.4-6.8,0.4-10.3,0
		C375.1,203.6,375.1,198.4,375.5,193.3 M379,196c0,3.3,0,6.7,0,10c0.8,0,2.5,0,3.3,0c0-3.3,0-6.7,0-10C381.5,196,379.8,196,379,196z
		"/>
	<path class="st0" d="M412.5,193.6c3.3-1.1,6.9-0.5,10.3-0.2c0.3,2.6,0.3,5.2,0.1,7.8c-2.4,0.1-4.8,0.1-7.1,0.2c0,1.6,0,3.3,0,5
		c1,0,2.9,0,3.8,0c0-0.8,0-2.3-0.1-3c1.2,0,2.4,0,3.6,0c0,1.8-0.1,3.6-0.3,5.4c-3.4,0.5-6.9,0.5-10.3,0.1
		C412.2,203.7,412,198.6,412.5,193.6 M415.8,195.7c0,1.1,0,2.2-0.1,3.3c1.3,0,2.6,0,3.9,0c0-1.1-0.1-2.2-0.1-3.3
		C418.3,195.7,417,195.7,415.8,195.7z"/>
	<path class="st0" d="M443.6,193.3c3.3-0.5,6.6-0.5,9.9-0.1c0.4,5.3,0.1,10.5,0.2,15.8c-3.4-0.5-6.8-0.3-10.2-0.2
		c-0.3-3.1-0.6-6.2,0-9.3c2.1-1.1,4.5-0.4,6.8-0.6c0-0.9-0.1-2.7-0.1-3.6c-2.5,0.3-4.3,2.2-6.6,2.8
		C443.5,196.6,443.6,194.9,443.6,193.3 M446.8,201.5c0,1.5,0,3,0,4.5c1.2,0,2.3,0,3.5,0c0-1.5,0-3,0-4.5
		C449.1,201.5,447.9,201.5,446.8,201.5z"/>
	<path class="st0" d="M462.5,193.3c3.4-0.4,6.9-0.4,10.3,0c0.2,1.8,0.3,3.6,0.3,5.4c-1.3,0-2.5,0-3.8,0.1c0-0.7-0.1-2.1-0.1-2.8
		c-0.8,0-2.4,0-3.2,0c0,3.3,0,6.7,0,10c0.8,0,2.4,0,3.3,0c0-0.8,0-2.3,0-3c1.3,0,2.5,0,3.8,0c0,1.9-0.1,3.8-0.3,5.7
		c-3.4,0.4-6.8,0.4-10.2,0C462.1,203.6,462.1,198.4,462.5,193.3z"/>
	<path class="st0" d="M494.5,193.6c3.2-1.3,6.9-0.5,10.2-0.3c0.4,5.1,0.4,10.3,0,15.4c-3.4,0.4-6.8,0.4-10.3,0
		C494.2,203.7,494,198.6,494.5,193.6 M498,196c0,3.3,0,6.7,0,10c0.8,0,2.5,0,3.3,0c0-3.3,0-6.7,0-10C500.5,196,498.8,196,498,196z"
		/>
	<path class="st0" d="M512.3,193.2c3.4,0.4,6.8,0.1,10.2,0c0.2,2.1,0.3,4.3,0.3,6.4c-1.2,0.1-2.5,0.1-3.7,0.2
		c-0.1-1.2-0.1-2.4-0.2-3.6c-0.7,0-2.2,0.1-2.9,0.1c0,4.2,0,8.5,0,12.7c-1.3,0-2.5,0-3.8,0C512.3,203.7,512.2,198.5,512.3,193.2z"/>
	<path class="st0" d="M529.5,192.6c1.4,0.3,4.1-0.6,4.1,1.6c0.6,2.9,1,5.8,1.9,8.5c0.8-3.3,1.3-6.7,2.1-10.1c0.9,0,2.8,0,3.7,0
		c-1.8,7.4-3.8,14.8-5.6,22.2c-1.3,0-2.5,0-3.8,0.1c0.5-2,1.2-4,1.6-6.1C532.5,203.4,530.8,198.1,529.5,192.6z"/>
	<path class="st0" d="M555.5,192.8c0.9,0,2.7,0,3.5,0c0.5,3.3,1.1,6.6,1.8,9.8c0.9-3.2,0.8-6.6,2-9.7c0.6-0.1,1.8-0.3,2.4-0.4
		c0.7,3.5,1.2,7.1,1.8,10.6c0.6-3.5,1.2-6.9,1.8-10.4c0.9,0,2.7,0,3.6,0c-1.2,5.4-2.3,10.8-3.5,16.3c-1.1,0-2.1,0-3.2,0
		c-0.5-2.8-1.1-5.6-1.7-8.3c-0.8,2.7-1.2,5.6-1.8,8.3c-0.8,0-2.4,0-3.2,0C557.9,203.6,556.7,198.2,555.5,192.8z"/>
	<path class="st0" d="M579.3,193c1.2,0,2.5,0,3.8,0c0,5.3,0,10.7,0,16c-1.3,0-2.5,0-3.8,0C579.3,203.7,579.3,198.3,579.3,193z"/>
	<path class="st0" d="M590.5,193.6c3.3-1.1,6.9-0.5,10.3-0.2c0.3,2.6,0.3,5.2,0.1,7.8c-2.4,0.1-4.8,0.1-7.1,0.2c0,1.6,0,3.3,0,5
		c1,0,2.8,0,3.8,0c0-0.8,0-2.3-0.1-3c1.2,0,2.4,0,3.6,0c0,1.8-0.1,3.6-0.3,5.4c-3.4,0.5-6.9,0.5-10.3,0
		C590.2,203.7,590,198.6,590.5,193.6 M593.8,195.7c0,1.1-0.1,2.2-0.1,3.3c1.3,0,2.6,0,3.9,0c0-1.1-0.1-2.2-0.1-3.3
		C596.2,195.7,595,195.7,593.8,195.7z"/>
	<path class="st0" d="M346.3,205.3c1.2,0,2.5,0,3.7,0c0,1.3,0,2.5,0,3.8c-1.3,0-2.5,0-3.8,0C346.2,207.7,346.3,206.5,346.3,205.3z"
		/>
	<path class="st0" d="M546.3,205.3c1.2,0,2.5,0,3.7,0c0,1.3,0,2.5,0,3.8c-1.3,0-2.5,0-3.8,0C546.2,207.7,546.3,206.5,546.3,205.3z"
		/>
</g>
<g id="_x23_772020ff">
	<path class="st1" d="M183.5,66.7c4.4,1.1,8.3,3.4,12.6,4.7c0.4,4.4-3.6,10.3,1.1,13.3c2.2,1.6,4.7,2.8,6.9,4.5
		c2.9-1.8,5.3-4.1,7.7-6.5c3.7,2.8,7.8,5.4,10.1,9.4c-0.4,3.5-5.6,5.7-5,9.7c1.1,3.1,3.4,5.6,5.2,8.3c3.8,0.1,7.5-0.8,11.3-1.3
		c1.2,4.2,3.6,7.9,4.7,12.2c-2.6,2.3-5.9,3.7-8.1,6.4c-0.6,3.1,0.4,6.2,1.2,9.2c2.1,3.7,7.2,2.1,10.7,3.5c0,4.6,0,9.1,0,13.7
		c-3.4,1-7.3,0.9-10.3,2.9c-1.2,3.7-3.1,8.4-0.3,11.8c2.3,1.5,4.8,2.6,6.8,4.5c-1.1,4.2-3.5,8-4.7,12.1c-3.8-0.5-7.5-1.3-11.3-1.3
		c-1.9,2.7-4.1,5.2-5.2,8.3c-0.6,4,4.6,6.1,5,9.7c-2.5,3.6-5.9,6.6-9.5,9c-2.4-1.8-4.8-3.8-7.6-4.9c-3.8,0.1-7.3,2.6-9.7,5.4
		c-0.5,3.8,1,7.4,1,11.1c-4.1,1.3-7.8,3.3-11.9,4.7c-1.9-2.7-3.5-5.6-5.4-8.3c-3.7,0-7.8-0.3-11.1,1.8c-3,2.7-0.3,7.5-3.1,10.1
		c-4.1,0.3-8.3,0.3-12.4,0c-2.6-2.8-0.4-8.2-3.7-10.5c-4-0.9-9.6-3.3-12.4,0.9c-1.4,1.8-2.3,3.9-3.4,5.9c-4.4-1.5-9-2.9-13-5.3
		c0.7-3.5,2.3-6.8,2.2-10.4c-2.6-1.9-5-4.3-8.1-5.4c-4-0.1-6.8,3.4-10,5.3c-3.5-3.4-6.9-6.8-10.2-10.3c2.5-2.7,6.3-5.6,5.3-9.8
		c-1.5-2.9-3.3-5.7-5.1-8.3c-3.4,1-6.8,2-10.4,2.3c-1.9-4.2-4.1-8.3-5.6-12.7c2.8-1.4,6-2.3,8-4.8c1.1-4.1,0.4-9.1-2.1-12.4
		c-2.9-0.3-5.9-0.3-8.7-1.2c0-4.6,0-9.2,0-13.8c3.3-0.8,6.6-1.3,9.8-2.3c0.4-3.8,3.7-8.1,0.9-11.6c-1.6-2.3-4.4-3.1-6.7-4.5
		c0-0.8,0-2.2,0-3c10.3,0.1,20.8,0.7,30.9-2c-0.8,2-1.6,3.9-2.2,5.9c8.2,4.3,17.5,5.9,26.4,8.2c4.8,1.2,9.8,2.3,14.8,2
		c0.8-3.9,1.3-7.9,1.4-11.9c1.6-7.2,0.4-14.6,0.9-21.9c2.7-3.3,6.6-5.4,9.5-8.5c4.6-4.9,8.9-9.9,12.8-15.4c1.7-0.2,3.5-0.2,5.2-0.5
		C181.3,72.8,182.1,69.5,183.5,66.7 M167,90.9c-0.5,2-1.1,4-1,6c0,12.1-0.6,24.3,2.2,36.1c5.3,0,10.5-1.1,15.6-2.3
		c7.5-2,15.3-3.3,22.3-6.7c1.2-0.4,2-1.4,2.9-2.2C201.2,105.5,185,93.7,167,90.9 M102.9,138.8c-3.2,14.4,1.3,29.8,9.5,41.8
		c1.2,1.4,2.4,3.6,4.5,3.5c8.6-6.5,14.3-15.9,21.1-24.1c1.8-2.6,4-5.2,4.3-8.5c-8.1-3.9-16.7-6.8-25.2-9.6
		C112.5,140.3,107.6,139.9,102.9,138.8 M156.4,139.3c-2.6,1.3-6,3.4-5.5,6.8c-0.2,2.8,0.7,6.4,3.7,7.4c3.8,1.5,9.8,0.9,11.1-3.8
		C167.9,144.1,162.3,137.3,156.4,139.3 M174.8,151.4c0.1,1.4,0.2,2.8,0.5,4.2c6.4,10.9,11.5,22.8,20.1,32.3c0.4,0.1,1.1,0.2,1.5,0.2
		c3.1-1.9,5.3-4.9,7.3-7.9c8-11.5,12.1-25.9,10.6-39.9c-0.3-0.3-0.8-1-1.1-1.3C200.1,140.6,187.2,145.8,174.8,151.4 M151.4,166.4
		c-5.3,4.4-9.7,9.7-13.8,15.2c-2.9,4.5-6.5,8.8-8,14.1c8.8,5.4,19.1,7.8,29.3,8.3c7.8-1.2,16.3-1.4,23.1-6
		c-3.8-10.6-11.1-19.4-17.7-28.3c-1.5-1.9-2.6-4.2-5-5.1C156.6,162.9,153.7,165.1,151.4,166.4z"/>
</g>
</svg>
