<?xml version="1.0" encoding="UTF-8" ?>
<!DOCTYPE svg PUBLIC "-//W3C//DTD SVG 1.1//EN" "http://www.w3.org/Graphics/SVG/1.1/DTD/svg11.dtd">
<svg width="631pt" height="237pt" viewBox="0 0 631 237" version="1.1" xmlns="http://www.w3.org/2000/svg">
<g id="#000000ff">
<path fill="#000000" opacity="1.00" d=" M 114.95 37.96 C 119.26 37.42 123.81 36.84 128.07 37.93 C 132.25 39.45 130.50 44.77 131.94 48.05 C 134.46 49.72 137.74 49.61 140.66 49.81 C 142.93 47.14 143.53 41.45 147.92 41.92 C 152.24 42.88 156.33 44.78 160.24 46.84 C 163.11 50.25 160.20 54.76 160.15 58.65 C 162.45 60.57 165.01 62.14 167.82 63.20 C 170.24 61.18 172.34 57.69 175.88 57.88 C 180.24 59.97 183.67 63.69 186.63 67.44 C 188.65 71.60 183.90 74.72 182.11 78.01 C 183.35 80.33 184.51 82.80 186.48 84.62 C 190.23 86.00 194.78 81.65 198.16 84.78 C 200.28 89.45 203.68 94.38 202.87 99.70 C 200.42 101.78 197.54 103.28 194.99 105.24 C 195.35 107.98 195.92 110.69 196.60 113.37 C 199.88 113.96 203.39 113.97 206.37 115.59 C 208.43 119.88 207.84 124.99 207.43 129.59 C 206.95 134.81 200.38 133.23 196.90 134.91 C 195.67 137.25 195.10 140.00 195.26 142.63 C 197.20 145.98 203.73 146.16 203.10 150.91 C 202.08 155.22 200.20 159.31 198.16 163.23 C 194.80 166.35 190.21 162.00 186.50 163.43 C 184.59 165.28 183.39 167.70 182.10 169.99 C 183.91 173.24 188.67 176.39 186.62 180.52 C 183.55 184.11 180.32 188.02 175.90 189.96 C 172.55 189.38 170.06 186.47 167.06 184.96 C 164.75 186.28 162.18 187.38 160.42 189.46 C 159.54 193.31 163.37 197.73 160.24 201.19 C 156.30 203.11 152.27 205.09 147.96 206.00 C 143.80 205.90 142.78 200.88 140.78 198.06 C 137.81 198.23 134.46 198.02 131.99 199.96 C 130.60 203.10 132.21 207.93 128.65 209.78 C 123.98 210.92 118.98 210.90 114.31 209.81 C 110.55 207.87 111.75 202.80 110.79 199.36 C 107.96 198.71 105.11 198.12 102.20 197.95 C 100.03 200.50 99.11 204.69 95.86 205.96 C 90.79 205.39 85.69 203.38 81.57 200.35 C 79.66 197.07 82.22 193.22 82.72 189.83 C 80.57 188.06 78.34 186.39 75.97 184.92 C 73.14 186.47 70.74 188.68 67.87 190.16 C 64.20 190.20 62.01 186.67 59.50 184.52 C 57.69 182.36 54.55 180.37 55.03 177.18 C 56.47 174.62 58.80 172.65 60.00 169.94 C 59.17 167.27 57.45 165.00 55.98 162.65 C 52.34 162.94 48.01 166.02 44.76 163.32 C 42.11 159.26 40.04 154.70 39.03 149.96 C 39.18 145.89 45.40 146.18 46.91 142.82 C 47.56 139.95 46.49 137.08 45.80 134.32 C 42.20 133.87 36.12 134.64 35.39 129.81 C 35.20 125.12 34.06 119.72 36.46 115.46 C 39.32 114.17 42.50 113.95 45.56 113.44 C 46.45 110.58 48.12 107.35 46.76 104.39 C 44.24 102.07 39.40 101.24 39.52 97.01 C 40.41 92.62 42.05 88.21 44.60 84.51 C 48.01 82.32 52.05 84.89 55.72 85.01 C 57.29 82.83 59.75 80.86 59.93 78.01 C 59.42 74.57 54.49 72.93 55.03 69.17 C 56.39 66.06 59.29 63.98 61.53 61.52 C 63.33 59.96 65.10 57.32 67.84 57.95 C 70.54 59.14 72.58 61.38 75.15 62.79 C 78.23 62.43 80.48 60.03 82.61 58.01 C 82.12 54.27 78.53 48.59 83.34 46.33 C 87.58 44.58 91.94 41.74 96.66 42.21 C 99.18 44.23 99.93 47.68 102.32 49.84 C 105.05 50.01 107.94 49.73 110.37 48.38 C 112.08 45.04 110.49 39.33 114.95 37.96 M 115.31 40.99 C 113.94 43.23 114.77 46.20 113.66 48.60 C 112.81 51.49 109.54 52.23 106.93 52.59 C 104.84 52.76 102.47 53.82 100.60 52.39 C 98.12 50.60 97.04 47.59 95.52 45.05 C 91.20 45.78 87.25 47.76 83.43 49.81 C 84.31 52.74 86.19 55.77 85.27 58.90 C 83.70 62.38 80.01 64.22 76.70 65.68 C 72.72 66.29 69.99 62.59 66.97 60.66 C 63.73 63.48 60.66 66.50 57.95 69.83 C 60.18 72.72 63.86 75.63 62.78 79.75 C 61.69 82.69 59.71 85.36 57.36 87.43 C 53.90 88.79 50.28 86.91 46.88 86.25 C 45.06 90.03 43.26 93.87 42.29 97.97 C 45.17 99.97 49.68 101.00 50.31 105.03 C 50.47 108.44 49.70 112.02 48.04 115.01 C 45.48 117.46 41.54 116.98 38.29 117.57 C 38.04 121.85 37.93 126.15 38.40 130.42 C 41.38 130.81 44.44 130.85 47.34 131.72 C 49.82 134.77 50.51 139.11 50.21 142.96 C 49.36 146.80 44.96 147.93 42.07 149.87 C 43.33 154.02 44.89 158.11 47.20 161.81 C 50.39 160.94 53.52 159.41 56.91 159.69 C 59.96 161.97 61.46 165.77 63.15 169.08 C 63.41 172.99 58.99 175.26 58.35 178.70 C 60.85 181.98 63.97 184.74 67.16 187.33 C 70.11 185.33 72.82 181.73 76.78 182.32 C 80.04 183.50 82.78 185.85 85.38 188.08 C 86.11 191.54 84.37 194.87 83.52 198.15 C 87.26 200.36 91.27 202.21 95.58 202.96 C 97.55 199.90 98.79 195.27 103.04 194.81 C 106.32 195.17 109.78 195.70 112.71 197.29 C 114.99 199.77 114.18 203.57 114.63 206.67 C 118.90 207.99 123.46 207.82 127.79 206.94 C 128.57 203.76 127.68 199.67 130.46 197.33 C 133.96 195.09 138.50 194.61 142.49 195.56 C 144.54 197.71 145.61 200.56 147.11 203.09 C 151.19 202.12 155.01 200.32 158.80 198.56 C 158.43 195.22 156.24 191.87 157.56 188.51 C 159.50 185.44 162.91 183.53 166.23 182.29 C 170.10 181.79 172.69 185.40 175.79 187.07 C 178.90 184.32 181.85 181.40 184.49 178.20 C 182.72 175.56 179.80 173.31 179.39 170.01 C 179.89 166.42 182.44 163.44 184.82 160.85 C 188.22 158.52 192.20 161.27 195.81 161.60 C 197.46 157.77 199.14 153.94 200.40 149.96 C 197.76 148.19 194.39 147.16 192.64 144.35 C 191.55 140.90 192.65 137.12 193.98 133.89 C 196.20 130.45 200.85 130.99 204.39 130.35 C 204.93 126.13 204.83 121.85 204.36 117.63 C 201.50 117.17 198.53 117.08 195.78 116.10 C 192.59 113.89 192.53 109.46 192.13 105.97 C 192.25 101.54 197.39 100.22 200.41 98.06 C 199.22 94.19 197.83 90.35 195.82 86.82 C 192.34 85.89 188.15 90.07 184.79 87.20 C 182.27 84.70 179.90 81.59 179.40 77.99 C 179.91 74.70 182.63 72.37 184.45 69.74 C 181.76 66.32 178.72 63.13 175.14 60.63 C 172.43 62.55 170.36 65.90 167.07 66.67 C 163.75 64.58 159.55 63.09 157.56 59.49 C 156.61 56.11 158.34 52.81 158.87 49.51 C 155.13 47.50 151.19 45.86 147.10 44.71 C 145.41 47.36 144.39 50.78 141.51 52.42 C 137.80 53.37 133.79 52.32 130.37 50.79 C 127.88 48.13 128.27 44.15 127.67 40.81 C 123.61 40.02 119.35 40.42 115.31 40.99 Z" />
<path fill="#000000" opacity="1.00" d=" M 238.40 39.36 C 240.25 37.20 243.28 36.98 245.94 36.98 C 250.31 37.01 254.70 36.86 259.07 37.07 C 262.00 37.17 265.14 39.11 265.49 42.22 C 265.95 46.39 265.87 50.62 265.60 54.80 C 265.60 57.66 262.19 57.99 260.04 58.05 C 257.65 57.97 254.13 58.56 253.10 55.72 C 252.58 53.55 252.74 51.29 252.68 49.08 C 251.96 49.05 250.53 49.00 249.82 48.98 C 249.66 58.33 249.66 67.68 249.82 77.02 C 250.53 77.00 251.96 76.95 252.68 76.92 C 252.97 74.14 251.94 70.51 254.47 68.51 C 257.89 67.81 262.52 67.07 265.24 69.74 C 266.21 74.04 265.74 78.57 265.61 82.96 C 265.60 86.83 261.65 89.22 258.10 88.99 C 253.07 89.00 248.02 89.19 243.01 88.86 C 239.48 88.70 236.62 85.55 236.78 82.03 C 236.61 70.35 236.82 58.66 236.69 46.98 C 236.76 44.40 236.54 41.43 238.40 39.36 M 239.61 43.97 C 239.56 56.65 239.56 69.34 239.61 82.03 C 239.50 83.97 240.94 86.03 243.03 85.92 C 248.04 86.12 253.06 85.96 258.07 86.00 C 259.77 86.01 262.25 85.71 262.63 83.65 C 263.09 79.46 262.70 75.23 262.83 71.02 C 260.42 71.00 258.01 71.00 255.60 70.99 C 255.57 73.98 255.57 76.97 255.61 79.95 C 252.68 80.01 249.76 80.00 246.83 80.00 C 246.81 68.67 246.81 57.33 246.83 46.00 C 249.76 46.00 252.69 45.99 255.62 46.05 C 255.57 49.03 255.57 52.02 255.60 55.01 C 258.01 55.00 260.42 55.00 262.83 54.98 C 262.70 50.77 263.09 46.54 262.63 42.35 C 262.25 40.30 259.77 39.98 258.07 40.00 C 253.05 40.03 248.04 39.88 243.03 40.08 C 240.93 39.97 239.50 42.03 239.61 43.97 Z" />
<path fill="#000000" opacity="1.00" d=" M 321.77 37.86 C 325.04 36.54 328.96 36.55 332.24 37.85 C 333.58 39.60 333.36 41.91 333.43 43.98 C 333.37 56.66 333.37 69.34 333.43 82.02 C 333.34 84.08 333.62 86.41 332.23 88.13 C 327.52 90.51 322.35 87.36 317.48 88.66 C 314.43 89.48 311.01 88.41 309.14 85.85 C 307.28 83.32 307.38 80.03 307.36 77.04 C 307.44 71.69 307.33 66.33 307.38 60.98 C 307.46 59.21 307.46 57.14 308.93 55.87 C 312.10 52.98 316.66 53.06 320.69 52.76 C 321.03 47.85 319.43 42.39 321.77 37.86 M 323.41 40.04 C 323.48 45.36 323.45 50.68 323.43 56.00 C 319.85 56.14 316.09 55.48 312.68 56.81 C 311.73 57.30 310.17 57.84 310.33 59.18 C 310.20 66.13 310.29 73.09 310.29 80.04 C 310.18 82.27 311.17 84.79 313.41 85.62 C 316.67 87.06 320.12 84.10 323.41 85.49 C 325.73 86.25 328.19 85.97 330.59 85.97 C 330.53 70.66 330.53 55.35 330.59 40.04 C 328.19 40.00 325.80 40.00 323.41 40.04 Z" />
<path fill="#000000" opacity="1.00" d=" M 375.74 41.96 C 375.59 39.89 376.52 37.08 379.02 37.15 C 384.97 36.84 390.95 36.91 396.91 37.11 C 402.20 37.10 401.21 43.94 400.33 47.40 C 397.25 50.14 392.53 48.59 388.77 49.04 C 388.73 51.67 388.73 54.30 388.76 56.93 C 391.99 57.51 397.07 55.56 398.80 59.27 C 399.29 62.26 399.95 66.16 397.52 68.51 C 394.67 69.24 391.70 68.97 388.79 69.07 C 388.55 74.65 388.98 80.24 388.61 85.81 C 388.63 87.38 387.31 88.53 385.84 88.71 C 383.09 89.19 380.16 89.31 377.48 88.48 C 375.39 87.03 375.79 84.23 375.69 82.03 C 375.78 68.67 375.67 55.31 375.74 41.96 M 378.60 40.00 C 378.57 55.34 378.56 70.67 378.60 86.01 C 381.01 86.00 383.42 86.00 385.84 85.98 C 385.81 79.32 385.81 72.67 385.83 66.01 C 389.30 66.00 392.78 66.00 396.25 65.99 C 396.25 64.00 396.25 62.00 396.25 60.01 C 392.78 60.00 389.30 60.00 385.83 59.99 C 385.81 55.33 385.81 50.67 385.83 46.01 C 389.86 46.00 393.89 46.01 397.92 45.99 C 397.91 44.00 397.91 42.01 397.92 40.02 C 391.48 39.98 385.04 40.01 378.60 40.00 Z" />
<path fill="#000000" opacity="1.00" d=" M 478.40 45.29 C 481.28 44.76 484.41 44.66 487.21 45.66 C 489.43 47.10 488.65 50.31 489.23 52.57 C 493.85 53.72 493.91 58.92 492.91 62.71 C 492.10 64.35 489.69 64.50 489.02 66.21 C 488.56 69.66 488.85 73.15 489.08 76.61 C 490.60 77.51 493.12 77.87 493.32 80.04 C 493.52 82.70 494.07 85.89 492.23 88.12 C 489.03 89.53 485.38 89.07 482.00 88.87 C 479.24 88.70 476.72 86.65 476.34 83.85 C 475.45 78.00 476.42 72.04 475.88 66.16 C 472.65 62.93 471.24 57.27 474.61 53.64 C 477.04 51.39 474.88 46.62 478.40 45.29 M 479.00 48.00 C 478.99 50.63 478.99 53.27 479.02 55.91 C 478.20 55.96 476.55 56.06 475.73 56.11 C 475.73 58.03 475.73 59.96 475.73 61.89 C 476.55 61.94 478.20 62.04 479.02 62.09 C 479.02 68.74 478.94 75.39 479.03 82.03 C 478.99 83.54 479.44 85.53 481.23 85.79 C 484.34 86.24 487.50 85.95 490.64 85.94 C 490.62 84.00 490.62 82.05 490.66 80.10 C 489.08 80.04 487.50 79.99 485.93 79.93 C 485.89 73.97 485.92 68.01 485.91 62.04 C 487.41 62.01 488.91 61.98 490.42 61.96 C 490.41 59.98 490.41 58.01 490.42 56.04 C 488.91 56.01 487.41 55.99 485.91 55.96 C 485.91 53.31 485.91 50.66 485.92 48.01 C 483.61 48.00 481.30 48.00 479.00 48.00 Z" />
<path fill="#000000" opacity="1.00" d=" M 277.42 53.56 C 281.86 52.45 286.53 53.14 291.07 52.98 C 294.14 52.79 297.98 53.82 298.85 57.20 C 299.91 61.71 299.22 66.41 299.39 71.00 C 299.22 75.59 299.91 80.29 298.85 84.80 C 298.10 87.76 294.86 89.08 292.06 88.99 C 287.44 88.96 282.76 89.35 278.18 88.67 C 275.09 88.13 273.23 85.04 273.41 82.04 C 273.36 74.68 273.36 67.32 273.41 59.96 C 273.30 57.26 274.69 54.36 277.42 53.56 M 278.27 56.28 C 276.67 56.61 276.26 58.65 276.29 60.05 C 276.24 67.04 276.30 74.04 276.26 81.03 C 276.12 82.97 276.57 85.93 279.09 85.89 C 283.72 86.13 288.37 86.01 293.00 85.97 C 295.24 86.19 296.69 83.96 296.52 81.94 C 296.58 74.65 296.58 67.35 296.52 60.06 C 296.69 58.04 295.24 55.81 293.00 56.03 C 288.10 56.08 283.14 55.67 278.27 56.28 Z" />
<path fill="#000000" opacity="1.00" d=" M 345.44 53.59 C 349.87 52.43 354.56 53.12 359.09 53.01 C 362.12 52.86 365.55 54.26 366.41 57.42 C 367.65 62.58 366.90 67.96 366.54 73.19 C 366.62 77.19 367.82 81.42 366.14 85.26 C 365.17 87.67 362.55 88.89 360.07 88.93 C 355.72 89.07 351.35 89.20 347.01 88.83 C 344.06 88.49 341.45 86.00 341.48 82.94 C 341.27 75.28 341.40 67.62 341.41 59.96 C 341.27 57.24 342.76 54.45 345.44 53.59 M 344.33 59.19 C 344.23 67.06 344.23 74.94 344.33 82.82 C 344.27 85.24 346.86 86.27 348.93 86.00 C 353.43 85.80 358.06 86.53 362.48 85.53 C 365.04 83.09 363.66 79.11 364.00 75.99 C 361.76 76.00 359.53 76.00 357.31 76.00 C 357.28 77.33 357.25 78.67 357.23 80.00 C 355.15 80.00 353.07 80.00 351.00 80.00 C 351.00 77.67 351.00 75.33 351.00 73.00 C 354.32 72.97 357.65 73.09 360.97 72.97 C 362.28 73.12 363.84 72.27 363.89 70.83 C 364.13 67.22 364.03 63.59 363.97 59.97 C 364.06 58.17 363.00 56.01 360.93 56.10 C 356.62 55.88 352.30 55.98 347.98 56.03 C 346.14 55.87 344.29 57.26 344.33 59.19 Z" />
<path fill="#000000" opacity="1.00" d=" M 413.25 53.20 C 416.84 52.79 420.47 52.98 424.08 52.97 C 426.47 53.02 429.23 53.12 430.98 55.01 C 433.28 57.38 432.80 60.96 432.90 63.98 C 432.70 71.27 433.12 78.57 432.72 85.84 C 432.74 88.75 429.21 89.11 427.03 88.98 C 423.00 88.56 418.98 88.44 414.95 88.93 C 411.68 89.32 407.91 87.29 407.52 83.78 C 407.06 79.06 406.94 74.21 407.82 69.53 C 408.83 66.06 407.05 62.55 407.69 59.04 C 407.96 56.12 410.36 53.62 413.25 53.20 M 410.46 65.00 C 412.57 65.00 414.69 65.00 416.81 65.01 C 416.88 64.26 417.01 62.74 417.08 61.98 C 419.14 62.00 421.20 62.00 423.27 62.01 C 423.27 64.01 423.27 66.00 423.27 68.00 C 419.36 68.22 415.30 67.43 411.50 68.56 C 409.64 70.14 410.32 72.82 410.16 74.95 C 410.32 78.07 409.76 81.30 410.60 84.35 C 412.16 86.88 415.64 85.85 418.09 85.75 C 422.04 84.83 425.92 86.35 429.91 86.05 C 429.89 77.36 429.95 68.67 429.90 59.99 C 430.07 58.18 429.00 56.00 426.93 56.10 C 422.35 55.92 417.75 55.89 413.17 56.12 C 409.33 57.29 410.64 61.99 410.46 65.00 Z" />
<path fill="#000000" opacity="1.00" d=" M 440.48 59.06 C 440.43 55.63 443.67 53.09 446.92 53.07 C 450.96 52.89 455.02 52.90 459.07 53.06 C 461.80 53.09 464.68 54.63 465.42 57.42 C 466.29 60.71 466.27 64.26 465.70 67.60 C 464.13 71.13 459.36 70.03 456.31 69.73 C 453.82 69.61 453.75 66.87 453.24 65.05 C 453.24 67.98 453.11 70.91 452.98 73.84 C 456.17 71.98 460.01 71.42 463.60 72.29 C 466.38 73.24 466.01 76.65 466.07 78.99 C 466.05 82.11 465.92 86.05 462.92 87.87 C 459.90 89.53 456.30 88.88 453.00 89.05 C 449.53 88.87 445.54 89.67 442.59 87.36 C 440.04 85.41 440.42 81.89 440.36 79.05 C 440.51 72.38 440.21 65.71 440.48 59.06 M 443.28 60.04 C 443.36 67.89 443.07 75.76 443.43 83.60 C 444.40 86.85 448.41 85.84 450.97 86.02 C 454.60 85.62 458.75 86.93 462.05 85.05 C 463.82 82.08 462.70 78.30 462.99 74.99 C 460.72 75.00 458.46 75.00 456.19 75.00 C 456.18 76.67 456.16 78.34 456.15 80.00 C 454.17 80.00 452.20 79.99 450.24 79.97 C 450.27 73.99 450.27 68.01 450.24 62.03 C 452.20 62.01 454.17 62.00 456.15 62.00 C 456.16 63.66 456.18 65.33 456.19 67.00 C 458.46 67.00 460.72 67.00 462.99 67.01 C 462.94 64.15 463.23 61.26 462.77 58.42 C 462.57 56.61 460.60 55.95 459.03 56.03 C 454.72 56.00 450.40 55.85 446.11 56.11 C 444.15 56.21 443.09 58.27 443.28 60.04 Z" />
<path fill="#000000" opacity="1.00" d=" M 504.42 53.56 C 508.86 52.45 513.53 53.14 518.07 52.98 C 521.14 52.79 524.99 53.82 525.85 57.20 C 526.90 61.71 526.22 66.41 526.39 71.00 C 526.22 75.59 526.90 80.29 525.85 84.80 C 525.10 87.77 521.86 89.08 519.05 88.99 C 514.44 88.96 509.76 89.35 505.19 88.67 C 502.08 88.14 500.24 85.03 500.41 82.04 C 500.36 74.68 500.36 67.32 500.41 59.96 C 500.30 57.27 501.68 54.36 504.42 53.56 M 505.27 56.28 C 503.67 56.61 503.26 58.64 503.29 60.05 C 503.26 67.35 503.26 74.65 503.29 81.95 C 503.16 83.68 504.01 85.97 506.08 85.89 C 510.71 86.13 515.36 86.01 520.00 85.97 C 522.23 86.20 523.69 83.97 523.52 81.94 C 523.58 74.65 523.58 67.35 523.52 60.06 C 523.69 58.03 522.23 55.80 520.00 56.03 C 515.10 56.08 510.14 55.67 505.27 56.28 Z" />
<path fill="#000000" opacity="1.00" d=" M 535.45 53.59 C 539.95 51.88 544.73 54.40 549.33 53.25 C 552.61 52.50 556.93 53.61 557.94 57.21 C 558.84 61.03 558.58 65.07 558.28 68.96 C 558.00 72.03 554.33 72.07 552.00 72.07 C 549.89 72.22 547.94 71.43 546.11 70.50 C 546.27 75.63 546.53 80.79 546.09 85.91 C 545.69 89.41 541.54 89.11 538.94 89.05 C 536.81 89.04 533.59 88.47 533.50 85.78 C 533.18 77.17 533.53 68.55 533.35 59.94 C 533.50 57.78 532.82 54.53 535.45 53.59 M 536.26 56.01 C 536.28 65.99 536.30 75.98 536.25 85.97 C 538.63 86.00 541.01 86.00 543.40 86.01 C 543.42 78.38 543.46 70.76 543.37 63.13 C 545.07 62.82 546.77 62.53 548.49 62.25 C 548.45 64.48 548.44 66.72 548.41 68.96 C 550.81 69.00 553.22 69.00 555.64 68.97 C 555.52 65.47 555.81 61.95 555.46 58.46 C 553.67 54.17 548.39 56.66 544.99 56.86 C 542.15 55.99 539.20 55.87 536.26 56.01 Z" />
<path fill="#000000" opacity="1.00" d=" M 567.22 53.16 C 569.88 52.87 572.73 52.64 575.28 53.63 C 577.17 55.14 577.03 57.87 577.72 59.99 C 578.52 57.80 578.79 55.25 580.45 53.50 C 583.64 52.69 587.23 52.58 590.32 53.85 C 592.17 55.32 591.39 57.73 590.94 59.66 C 587.74 72.17 584.71 84.73 581.29 97.18 C 580.72 100.07 577.30 100.03 575.00 100.07 C 572.60 100.09 569.12 99.98 568.62 96.98 C 569.07 92.32 572.18 87.85 570.72 83.11 C 568.66 74.56 566.31 66.08 564.36 57.51 C 563.68 55.54 565.10 53.27 567.22 53.16 M 566.88 56.02 C 569.17 66.09 572.03 76.02 574.22 86.10 C 573.50 89.80 572.31 93.39 571.27 97.02 C 573.71 97.01 576.17 97.00 578.62 96.92 C 581.96 83.27 585.59 69.70 588.95 56.06 C 586.53 56.00 584.12 55.99 581.72 55.98 C 580.42 62.37 579.29 68.78 577.78 75.12 C 576.52 68.74 575.31 62.34 573.94 55.99 C 571.58 56.00 569.23 56.00 566.88 56.02 Z" />
<path fill="#000000" opacity="1.00" d=" M 283.24 62.03 C 285.29 62.01 287.35 62.00 289.42 61.99 C 289.46 68.00 289.46 74.00 289.42 80.01 C 287.35 80.00 285.29 79.99 283.23 79.97 C 283.27 73.99 283.27 68.01 283.24 62.03 M 286.40 64.79 C 286.08 68.92 286.08 73.08 286.40 77.21 C 287.09 73.12 287.06 68.88 286.40 64.79 Z" />
<path fill="#000000" opacity="1.00" d=" M 317.33 64.23 C 317.18 60.90 321.38 62.32 323.42 61.94 C 323.49 67.37 323.41 72.79 323.47 78.22 C 321.56 78.68 319.52 80.88 317.62 79.41 C 316.89 74.40 317.31 69.28 317.33 64.23 M 320.42 77.16 C 321.07 73.08 320.88 68.92 320.62 64.81 C 319.76 68.87 320.21 73.06 320.42 77.16 Z" />
<path fill="#000000" opacity="1.00" d=" M 351.00 62.00 C 353.09 62.00 355.17 62.00 357.27 62.01 C 357.27 64.33 357.27 66.66 357.27 68.99 C 355.17 69.00 353.09 69.00 351.00 69.00 C 351.00 66.67 351.00 64.33 351.00 62.00 Z" />
<path fill="#000000" opacity="1.00" d=" M 510.24 62.03 C 512.29 62.01 514.35 62.00 516.42 61.99 C 516.46 68.00 516.46 74.00 516.42 80.01 C 514.35 80.00 512.29 79.99 510.23 79.97 C 510.27 73.99 510.27 68.01 510.24 62.03 M 513.62 77.19 C 513.91 73.06 513.91 68.91 513.60 64.79 C 512.97 68.87 512.84 73.12 513.62 77.19 Z" />
<path fill="#000000" opacity="1.00" d=" M 69.82 98.94 C 77.51 82.20 94.02 70.10 112.15 67.26 C 113.44 68.90 114.27 70.86 114.30 72.96 C 114.87 84.28 114.80 95.69 113.09 106.92 C 112.83 108.21 112.77 109.77 111.51 110.54 C 107.75 111.28 103.94 110.22 100.25 109.52 C 91.83 107.66 83.44 105.52 75.26 102.77 C 73.06 102.13 71.37 100.55 69.82 98.94 M 73.45 98.83 C 85.20 103.05 97.40 106.38 109.81 107.93 C 111.74 95.66 112.18 83.10 110.90 70.75 C 94.96 73.37 80.45 84.29 73.45 98.83 Z" />
<path fill="#000000" opacity="1.00" d=" M 128.16 74.94 C 128.05 72.30 128.61 69.70 129.96 67.42 C 147.87 69.43 163.61 81.61 172.08 97.22 C 173.07 99.13 171.62 101.23 169.70 101.71 C 158.45 106.20 146.57 109.00 134.61 110.81 C 132.58 111.34 130.24 110.34 129.95 108.09 C 127.85 97.18 128.15 86.00 128.16 74.94 M 131.33 70.90 C 131.02 83.27 130.70 95.79 133.08 108.00 C 145.38 106.11 157.66 103.41 169.21 98.67 C 161.83 84.39 147.52 72.91 131.33 70.90 Z" />
<path fill="#000000" opacity="1.00" d=" M 416.83 72.00 C 418.97 72.00 421.12 72.00 423.27 72.00 C 423.28 74.67 423.28 77.33 423.27 80.00 C 421.12 80.00 418.97 80.00 416.83 79.99 C 416.82 77.33 416.82 74.67 416.83 72.00 Z" />
<path fill="#000000" opacity="1.00" d=" M 239.46 99.52 C 241.96 98.79 244.86 98.56 247.31 99.61 C 249.55 101.33 249.06 104.55 249.59 107.03 C 250.20 104.56 250.87 102.11 251.62 99.68 C 254.45 99.04 257.58 98.43 260.28 99.87 C 262.10 101.37 261.34 103.81 261.02 105.78 C 259.27 114.60 257.51 123.42 255.95 132.27 C 255.49 134.29 255.34 137.18 252.82 137.69 C 250.31 138.24 247.29 138.36 245.10 136.84 C 244.08 135.03 243.84 132.91 243.42 130.91 C 241.92 122.33 240.16 113.80 238.48 105.26 C 238.14 103.33 237.60 100.88 239.46 99.52 M 240.81 102.01 C 242.86 113.02 244.99 124.03 247.23 135.00 C 249.00 135.00 250.76 134.98 252.53 134.95 C 254.48 123.95 256.76 113.00 258.86 102.03 C 257.07 102.01 255.29 102.02 253.51 102.05 C 252.38 109.44 251.23 116.83 249.77 124.16 C 248.38 116.81 247.32 109.39 246.00 102.02 C 244.27 102.00 242.53 102.00 240.81 102.01 Z" />
<path fill="#000000" opacity="1.00" d=" M 309.49 103.49 C 311.98 102.70 314.84 102.71 317.26 103.79 C 318.81 104.58 318.65 106.56 318.70 108.03 C 318.37 116.95 319.10 125.89 318.60 134.81 C 318.33 138.38 313.67 138.17 311.07 137.91 C 309.01 137.96 307.89 135.83 307.93 134.02 C 307.47 125.02 308.36 116.02 307.93 107.04 C 307.83 105.67 308.46 104.36 309.49 103.49 M 310.75 105.99 C 310.74 107.66 310.74 109.34 310.75 111.01 C 312.44 111.00 314.14 110.99 315.84 110.97 C 315.83 109.32 315.83 107.67 315.84 106.03 C 314.14 106.01 312.44 106.00 310.75 105.99 M 310.76 113.99 C 310.73 121.00 310.73 128.00 310.76 135.01 C 312.45 135.00 314.14 134.99 315.83 134.98 C 315.81 127.99 315.81 121.01 315.83 114.02 C 314.14 114.01 312.45 114.00 310.76 113.99 Z" />
<path fill="#000000" opacity="1.00" d=" M 370.39 111.48 C 373.88 110.66 377.53 110.93 381.09 111.06 C 384.28 110.97 386.79 113.95 386.80 117.02 C 387.04 121.67 386.45 126.32 386.80 130.97 C 387.12 134.00 385.21 137.46 381.99 137.84 C 378.40 138.17 374.74 138.23 371.16 137.72 C 368.38 137.40 366.67 134.65 366.69 132.02 C 366.50 127.01 366.50 121.99 366.69 116.98 C 366.73 114.65 367.97 112.09 370.39 111.48 M 369.48 117.23 C 369.35 121.17 369.49 125.11 369.43 129.05 C 369.50 130.90 369.16 133.01 370.46 134.55 C 373.24 135.37 376.21 134.91 379.08 135.03 C 380.59 134.91 382.89 135.33 383.61 133.57 C 384.07 131.77 383.88 129.88 383.97 128.04 C 382.38 128.01 380.79 127.99 379.20 127.97 C 379.13 128.73 378.99 130.25 378.92 131.01 C 377.49 131.01 376.06 131.00 374.63 131.00 C 374.62 129.33 374.61 127.67 374.61 126.00 C 377.52 125.77 380.70 126.58 383.45 125.45 C 384.20 122.08 384.39 118.06 383.24 114.76 C 379.81 113.21 375.74 114.20 372.06 114.09 C 370.23 113.84 369.48 115.72 369.48 117.23 Z" />
<path fill="#000000" opacity="1.00" d=" M 436.48 111.50 C 439.92 110.31 443.53 111.96 447.05 111.33 C 449.21 111.19 451.98 110.48 453.57 112.45 C 455.73 114.73 455.17 118.13 455.31 121.00 C 455.09 125.90 455.73 130.88 454.90 135.73 C 453.68 138.87 449.77 137.88 447.19 137.64 C 443.63 136.88 439.96 138.79 436.48 137.50 C 434.69 136.28 434.74 133.96 434.71 132.04 C 434.71 127.02 434.71 121.99 434.71 116.96 C 434.73 115.04 434.70 112.73 436.48 111.50 M 437.62 113.87 C 437.55 120.92 437.57 127.96 437.61 135.01 C 439.34 135.00 441.09 134.99 442.84 134.98 C 442.91 129.77 442.54 124.54 443.11 119.35 C 444.46 118.98 445.81 118.62 447.18 118.28 C 447.17 123.85 447.20 129.41 447.16 134.98 C 448.90 134.99 450.64 135.00 452.39 135.01 C 452.36 128.71 452.58 122.41 452.32 116.12 C 452.14 113.32 448.96 113.91 447.09 114.31 C 443.92 115.44 440.84 113.67 437.62 113.87 Z" />
<path fill="#000000" opacity="1.00" d=" M 504.47 111.50 C 507.91 110.31 511.53 111.96 515.05 111.33 C 517.21 111.19 519.97 110.48 521.56 112.45 C 523.73 114.72 523.17 118.13 523.31 120.99 C 523.09 125.90 523.73 130.88 522.90 135.73 C 521.69 138.87 517.77 137.88 515.20 137.64 C 511.63 136.88 507.96 138.78 504.48 137.50 C 502.69 136.28 502.74 133.96 502.71 132.05 C 502.71 127.01 502.71 121.98 502.71 116.95 C 502.73 115.03 502.70 112.73 504.47 111.50 M 505.62 113.87 C 505.55 120.92 505.57 127.96 505.61 135.01 C 507.34 135.00 509.09 134.99 510.84 134.98 C 510.91 129.77 510.54 124.54 511.10 119.35 C 512.45 118.98 513.81 118.63 515.18 118.28 C 515.17 123.85 515.20 129.41 515.16 134.98 C 516.90 134.99 518.64 135.00 520.39 135.01 C 520.36 128.71 520.58 122.40 520.31 116.11 C 520.15 113.33 516.96 113.91 515.09 114.31 C 511.92 115.44 508.84 113.67 505.62 113.87 Z" />
<path fill="#000000" opacity="1.00" d=" M 574.41 111.52 C 578.18 110.61 582.15 110.88 585.99 111.16 C 589.25 111.47 591.00 114.97 590.84 117.96 C 590.84 123.58 591.06 129.23 590.72 134.84 C 590.47 138.64 585.64 137.92 583.00 137.85 C 579.22 137.33 574.10 139.27 571.56 135.44 C 569.23 129.89 571.58 123.79 571.02 118.00 C 570.69 115.41 571.67 112.34 574.41 111.52 M 574.32 114.37 C 573.88 116.21 573.70 118.09 573.67 119.98 C 575.01 119.99 576.36 120.01 577.72 120.02 C 578.69 117.78 580.96 117.90 583.06 117.90 C 583.07 119.26 583.08 120.63 583.10 121.99 C 580.46 122.03 577.82 121.83 575.21 122.17 C 572.77 122.99 573.59 126.05 573.40 128.00 C 573.60 130.19 572.87 132.77 574.43 134.61 C 576.91 135.51 579.54 134.49 582.09 134.49 C 584.02 134.77 585.94 135.02 587.89 135.11 C 587.71 128.56 588.35 121.92 587.59 115.42 C 587.34 115.14 586.86 114.59 586.61 114.31 C 582.57 113.65 578.38 113.92 574.32 114.37 Z" />
<path fill="#000000" opacity="1.00" d=" M 119.44 115.51 C 126.13 113.44 132.35 122.05 128.78 127.87 C 126.17 132.93 118.40 133.57 114.91 129.12 C 111.01 124.63 113.65 116.81 119.44 115.51 M 120.38 118.39 C 117.65 119.17 115.40 121.86 116.17 124.81 C 116.63 129.39 123.52 130.50 125.91 126.87 C 128.62 123.28 124.80 117.25 120.38 118.39 Z" />
<path fill="#000000" opacity="1.00" d=" M 64.88 115.63 C 70.88 115.27 76.70 117.07 82.33 118.91 C 88.68 121.11 95.15 123.03 101.34 125.68 C 103.46 126.66 106.54 128.01 105.50 130.94 C 104.03 134.41 101.45 137.25 99.31 140.32 C 93.46 147.73 88.22 155.96 80.41 161.50 C 79.11 162.56 77.51 161.40 76.72 160.29 C 68.03 149.58 63.60 135.69 63.85 121.95 C 63.89 119.80 64.30 117.69 64.88 115.63 M 67.12 118.69 C 66.04 132.90 70.16 147.49 79.16 158.62 C 86.52 153.11 91.51 145.25 97.15 138.13 C 99.21 135.53 101.04 132.77 102.86 130.00 C 98.47 127.44 93.57 126.00 88.82 124.25 C 81.74 121.89 74.68 118.99 67.12 118.69 Z" />
<path fill="#000000" opacity="1.00" d=" M 168.43 116.64 C 171.59 116.15 175.44 114.13 178.17 116.76 C 180.58 134.30 174.19 153.13 161.10 165.18 C 158.92 166.88 156.86 163.97 155.50 162.54 C 148.96 154.04 143.94 144.50 138.94 135.06 C 137.95 133.04 136.50 130.76 137.41 128.45 C 138.22 127.14 139.77 126.65 141.08 126.01 C 149.95 122.22 159.03 118.85 168.43 116.64 M 139.89 130.14 C 143.51 137.38 147.36 144.51 151.53 151.45 C 153.96 155.34 156.38 159.32 159.76 162.49 C 171.34 151.05 176.79 134.36 175.66 118.26 C 163.27 120.53 151.13 124.49 139.89 130.14 Z" />
<path fill="#000000" opacity="1.00" d=" M 374.62 118.00 C 376.11 118.00 377.60 118.00 379.09 118.01 C 379.08 119.67 379.08 121.33 379.09 122.99 C 377.60 123.00 376.11 123.00 374.62 123.00 C 374.61 121.33 374.61 119.66 374.62 118.00 Z" />
<path fill="#000000" opacity="1.00" d=" M 578.57 125.00 C 580.07 125.00 581.57 125.00 583.09 125.01 C 583.08 127.00 583.08 129.00 583.09 130.99 C 581.57 130.99 580.07 131.00 578.57 131.00 C 578.55 129.00 578.55 127.00 578.57 125.00 Z" />
<path fill="#000000" opacity="1.00" d=" M 111.72 144.71 C 114.30 142.20 117.78 139.68 121.59 140.41 C 124.34 141.37 126.05 143.98 127.81 146.15 C 133.65 154.07 139.74 161.89 144.14 170.73 C 145.02 172.35 145.27 174.19 145.43 176.00 C 129.29 183.90 109.24 183.08 93.66 174.20 C 91.09 172.87 92.88 169.74 93.79 167.88 C 98.59 159.34 104.78 151.61 111.72 144.71 M 114.40 146.41 C 106.76 153.77 100.05 162.24 95.23 171.71 C 109.45 179.62 126.97 180.25 142.09 174.56 C 141.64 172.63 140.95 170.75 139.91 169.07 C 134.94 160.59 129.11 152.65 122.96 145.01 C 120.58 141.60 116.63 144.32 114.40 146.41 Z" />
<path fill="#000000" opacity="1.00" d=" M 292.18 165.21 C 295.22 163.22 302.21 162.88 302.06 167.99 C 302.29 177.33 302.04 186.69 302.17 196.04 C 302.05 198.23 302.47 200.96 300.51 202.51 C 297.48 203.60 294.29 202.29 291.18 202.58 C 288.85 202.76 286.26 203.30 284.25 201.74 C 281.57 200.19 281.74 196.71 281.69 194.04 C 281.86 189.42 281.30 184.74 282.11 180.18 C 283.17 176.35 287.97 176.35 291.15 175.72 C 291.56 172.27 290.49 168.34 292.18 165.21 M 294.16 167.02 C 294.19 171.00 294.18 174.98 294.17 178.96 C 291.07 179.33 286.63 177.94 284.69 181.13 C 284.49 186.71 284.47 192.31 284.70 197.89 C 286.13 201.33 290.12 199.49 292.80 199.17 C 294.90 199.74 297.04 200.09 299.23 200.12 C 299.28 189.08 299.27 178.03 299.24 166.99 C 297.54 167.00 295.85 167.01 294.16 167.02 Z" />
<path fill="#000000" opacity="1.00" d=" M 334.69 164.74 C 337.80 163.62 341.35 163.67 344.53 164.51 C 347.99 167.53 346.20 172.88 342.69 175.03 C 344.06 176.80 346.13 178.50 345.81 181.00 C 346.12 183.50 343.87 185.10 342.87 187.13 C 342.23 191.81 343.42 196.65 342.24 201.26 C 339.80 203.67 333.87 204.17 332.10 200.73 C 331.19 196.27 332.10 191.66 331.64 187.15 C 331.28 185.29 330.05 183.74 329.54 181.93 C 328.95 179.02 331.72 176.84 331.65 174.00 C 331.94 170.83 331.29 166.48 334.69 164.74 M 335.46 167.55 C 333.81 170.96 334.78 174.93 334.67 178.58 C 334.08 178.80 332.89 179.22 332.29 179.44 C 332.30 180.48 332.30 181.52 332.29 182.56 C 332.89 182.77 334.07 183.20 334.67 183.42 C 334.49 188.94 334.59 194.48 334.61 200.01 C 336.35 200.00 338.09 199.99 339.84 199.98 C 339.80 194.37 339.83 188.76 339.82 183.16 C 340.59 183.06 342.13 182.88 342.90 182.79 C 342.89 181.60 342.89 180.40 342.91 179.21 C 342.13 179.12 340.59 178.93 339.81 178.84 C 339.82 176.25 339.82 173.67 339.80 171.08 C 340.71 171.04 342.53 170.96 343.43 170.92 C 343.42 169.61 343.41 168.30 343.40 167.00 C 340.77 167.16 337.95 166.51 335.46 167.55 Z" />
<path fill="#000000" opacity="1.00" d=" M 531.48 168.49 C 533.98 167.70 536.84 167.71 539.26 168.79 C 540.81 169.57 540.64 171.56 540.70 173.03 C 540.37 181.95 541.10 190.89 540.60 199.81 C 540.47 203.05 536.38 203.12 533.99 203.01 C 532.06 203.16 530.14 201.96 530.04 199.91 C 529.34 190.63 530.40 181.31 529.93 172.03 C 529.82 170.67 530.46 169.36 531.48 168.49 M 532.75 170.99 C 532.74 172.66 532.74 174.33 532.75 176.01 C 534.44 176.00 536.14 175.99 537.84 175.97 C 537.82 174.32 537.82 172.67 537.84 171.03 C 536.14 171.01 534.44 171.00 532.75 170.99 M 532.76 178.99 C 532.73 186.00 532.73 193.00 532.76 200.01 C 534.45 200.00 536.14 199.99 537.83 199.98 C 537.81 192.99 537.81 186.00 537.83 179.02 C 536.14 179.00 534.44 179.00 532.76 178.99 Z" />
<path fill="#000000" opacity="1.00" d=" M 398.48 170.48 C 401.61 169.66 406.99 169.08 407.69 173.36 C 408.27 176.16 411.18 178.03 411.06 181.00 C 411.37 183.53 409.01 185.11 407.94 187.13 C 407.65 189.39 407.42 192.04 409.37 193.66 C 411.54 195.59 411.73 198.94 410.45 201.41 C 409.42 203.37 406.84 202.89 405.01 203.07 C 402.21 203.14 398.49 202.71 397.50 199.59 C 396.25 195.55 397.23 191.26 396.75 187.13 C 396.33 185.29 395.10 183.75 394.59 181.94 C 394.23 179.36 396.00 177.19 396.64 174.81 C 397.22 173.36 397.35 171.63 398.48 170.48 M 399.76 173.00 C 399.74 174.89 399.75 176.78 399.80 178.67 C 399.18 178.86 397.96 179.25 397.34 179.44 C 397.35 180.48 397.35 181.52 397.34 182.56 C 397.96 182.76 399.20 183.14 399.82 183.33 C 400.05 188.67 398.89 194.28 400.53 199.42 C 402.94 200.47 405.69 199.85 408.25 200.00 C 408.25 198.70 408.26 197.40 408.27 196.10 C 407.43 196.05 405.75 195.95 404.91 195.90 C 404.91 191.64 404.91 187.37 404.92 183.11 C 405.69 183.05 407.24 182.94 408.01 182.89 C 408.00 181.63 408.00 180.37 408.01 179.11 C 407.24 179.06 405.69 178.94 404.92 178.89 C 404.91 176.92 404.91 174.96 404.91 173.00 C 403.18 173.00 401.47 173.00 399.76 173.00 Z" />
<path fill="#000000" opacity="1.00" d=" M 233.98 180.15 C 234.70 176.49 238.79 175.75 241.93 175.95 C 245.64 176.15 250.88 174.93 252.97 178.99 C 254.26 182.25 254.83 186.84 251.95 189.45 C 255.09 192.75 254.69 199.16 251.17 202.06 C 247.43 203.75 243.08 202.93 239.09 202.89 C 235.98 202.89 233.59 200.04 233.69 197.01 C 233.62 191.40 233.22 185.72 233.98 180.15 M 237.46 179.47 C 235.59 182.24 236.76 185.86 236.44 188.99 C 236.82 192.46 235.50 196.43 237.46 199.54 C 241.38 200.39 245.64 200.16 249.61 199.70 C 251.83 197.93 250.58 194.49 250.94 192.03 C 249.31 192.01 247.68 191.99 246.05 191.98 C 246.01 193.32 245.98 194.66 245.96 196.01 C 244.55 196.00 243.14 196.00 241.74 196.00 C 241.71 191.67 241.71 187.33 241.74 183.00 C 243.14 183.00 244.55 182.99 245.96 182.99 C 245.98 184.33 246.01 185.67 246.05 187.02 C 247.68 187.00 249.31 186.99 250.95 186.97 C 250.76 184.58 251.38 181.96 250.25 179.74 C 248.79 178.59 246.76 179.13 245.06 178.97 C 242.54 179.12 239.87 178.59 237.46 179.47 Z" />
<path fill="#000000" opacity="1.00" d=" M 262.23 176.20 C 266.55 175.93 271.11 175.44 275.31 176.74 C 279.45 179.24 277.76 184.98 278.17 189.00 C 277.75 193.23 279.37 198.59 275.95 201.89 C 272.61 203.68 268.58 202.88 264.93 203.03 C 262.10 203.21 258.47 202.15 258.03 198.88 C 257.40 193.28 257.74 187.60 257.79 181.97 C 257.65 179.29 259.37 176.44 262.23 176.20 M 261.16 179.27 C 260.31 182.44 260.60 185.75 260.57 189.00 C 260.65 192.58 260.24 196.22 261.16 199.74 C 265.65 200.14 270.20 200.19 274.69 199.68 C 275.60 192.97 275.59 186.03 274.70 179.32 C 270.20 178.81 265.65 178.86 261.16 179.27 Z" />
<path fill="#000000" opacity="1.00" d=" M 310.39 176.48 C 313.88 175.66 317.53 175.92 321.09 176.06 C 324.28 175.97 326.79 178.95 326.80 182.02 C 327.04 186.67 326.46 191.32 326.80 195.97 C 327.12 198.99 325.22 202.46 321.99 202.84 C 318.40 203.17 314.74 203.23 311.16 202.72 C 308.38 202.40 306.67 199.65 306.69 197.02 C 306.50 192.01 306.50 186.98 306.69 181.98 C 306.72 179.65 307.97 177.10 310.39 176.48 M 310.26 179.30 C 308.78 183.38 309.68 187.80 309.43 192.03 C 309.63 194.52 308.84 197.39 310.45 199.55 C 314.16 200.41 318.06 199.99 321.84 199.89 C 324.90 199.20 323.61 195.28 323.97 193.05 C 322.38 193.01 320.79 192.99 319.20 192.97 C 319.13 193.73 318.99 195.25 318.92 196.01 C 317.49 196.00 316.06 196.00 314.63 196.00 C 314.62 194.33 314.61 192.67 314.61 191.00 C 317.52 190.77 320.71 191.59 323.44 190.45 C 324.22 187.08 324.37 183.07 323.25 179.76 C 319.22 178.15 314.53 179.18 310.26 179.30 Z" />
<path fill="#000000" opacity="1.00" d=" M 351.41 176.52 C 355.45 175.63 359.73 175.76 363.81 176.33 C 367.47 177.37 368.09 181.70 367.89 184.95 C 367.63 190.42 368.44 196.01 367.37 201.41 C 364.91 203.90 361.07 202.60 357.98 202.79 C 354.60 202.82 349.77 203.66 348.19 199.71 C 346.57 194.24 348.49 188.56 348.02 182.99 C 347.70 180.40 348.68 177.34 351.41 176.52 M 352.29 179.23 C 350.09 180.18 350.94 183.11 350.70 184.99 C 352.03 184.99 353.37 185.01 354.71 185.02 C 355.68 182.78 357.96 182.90 360.06 182.90 C 360.07 184.26 360.08 185.63 360.10 186.99 C 357.46 187.03 354.82 186.82 352.21 187.17 C 349.77 187.99 350.60 191.05 350.40 193.00 C 350.61 195.18 349.86 197.78 351.43 199.60 C 354.37 200.71 357.46 199.00 360.45 199.68 C 361.92 199.92 363.40 200.01 364.89 200.11 C 364.89 194.09 364.99 188.07 364.87 182.05 C 364.89 180.78 364.38 179.11 362.84 179.10 C 359.33 178.93 355.77 178.78 352.29 179.23 Z" />
<path fill="#000000" opacity="1.00" d=" M 371.69 181.98 C 371.69 179.37 373.37 176.55 376.15 176.24 C 379.43 175.79 382.78 175.89 386.09 176.06 C 392.48 176.18 393.80 185.80 389.89 189.56 C 392.89 192.09 392.24 196.76 390.97 200.02 C 389.35 203.43 385.13 203.04 381.99 203.07 C 379.19 202.90 375.91 203.48 373.59 201.53 C 371.70 199.94 371.65 197.29 371.59 195.03 C 371.60 190.68 371.46 186.32 371.69 181.98 M 375.46 179.46 C 373.37 183.23 374.91 187.90 374.43 192.04 C 374.76 194.53 373.43 198.45 376.20 199.82 C 379.98 200.08 383.87 200.30 387.61 199.69 C 389.83 197.94 388.57 194.49 388.95 192.03 C 387.31 192.01 385.68 191.99 384.05 191.98 C 384.01 193.32 383.98 194.66 383.96 196.01 C 382.55 196.00 381.14 196.00 379.74 196.00 C 379.71 191.67 379.71 187.33 379.74 183.00 C 381.14 183.00 382.55 182.99 383.96 182.99 C 383.98 184.33 384.01 185.67 384.05 187.02 C 385.68 187.00 387.31 186.99 388.94 186.97 C 388.58 184.51 389.83 181.06 387.61 179.31 C 383.64 178.83 379.38 178.62 375.46 179.46 Z" />
<path fill="#000000" opacity="1.00" d=" M 419.23 176.20 C 423.73 176.03 428.70 175.17 432.92 177.10 C 436.44 180.31 434.72 185.77 435.17 189.99 C 434.78 194.03 436.39 199.68 432.33 202.26 C 428.12 203.56 423.56 203.07 419.23 202.80 C 416.37 202.56 414.65 199.71 414.79 197.02 C 414.68 191.69 414.55 186.34 414.88 181.02 C 414.93 178.61 416.81 176.44 419.23 176.20 M 418.16 179.26 C 417.31 182.44 417.60 185.75 417.57 189.00 C 417.65 192.58 417.24 196.22 418.15 199.73 C 422.65 200.14 427.21 200.19 431.70 199.68 C 432.59 192.96 432.60 186.03 431.69 179.32 C 427.20 178.81 422.65 178.86 418.16 179.26 Z" />
<path fill="#000000" opacity="1.00" d=" M 438.74 180.96 C 438.59 178.89 439.52 176.05 442.03 176.13 C 445.64 176.06 449.25 176.49 452.86 176.17 C 456.00 175.95 458.60 178.94 458.44 181.98 C 458.46 184.69 459.03 187.83 457.25 190.14 C 454.88 191.22 452.20 190.92 449.67 191.05 C 449.47 194.41 450.06 197.90 449.12 201.16 C 446.49 204.12 438.74 204.17 438.80 199.01 C 438.61 193.00 438.72 186.97 438.74 180.96 M 441.62 178.86 C 441.55 185.91 441.56 192.97 441.61 200.02 C 443.32 200.00 445.03 199.98 446.75 199.96 C 446.69 194.66 446.72 189.36 446.74 184.05 C 447.66 183.87 449.51 183.49 450.44 183.30 C 450.41 184.87 450.38 186.44 450.37 188.01 C 452.12 188.00 453.88 187.98 455.63 187.96 C 455.59 185.47 455.75 182.96 455.47 180.48 C 453.81 177.73 450.47 179.62 448.01 179.75 C 445.91 179.27 443.78 178.92 441.62 178.86 Z" />
<path fill="#000000" opacity="1.00" d=" M 462.47 176.52 C 465.56 175.18 468.76 176.56 471.81 177.22 C 475.10 176.16 481.07 174.35 482.22 179.03 C 480.27 188.46 477.37 197.70 475.36 207.14 C 474.84 209.02 474.52 211.99 471.93 211.90 C 469.36 212.11 465.48 212.59 464.34 209.59 C 463.97 206.05 466.21 202.70 465.76 199.14 C 464.61 192.60 462.16 186.36 461.00 179.83 C 460.64 178.52 461.55 177.33 462.47 176.52 M 463.60 179.00 C 465.06 185.29 466.93 191.48 468.42 197.77 C 469.63 201.55 467.38 205.25 466.89 208.98 C 468.58 208.99 470.29 209.00 472.00 209.02 C 474.34 198.97 476.90 188.96 479.56 178.99 C 477.82 179.00 476.10 179.02 474.39 179.07 C 473.48 183.40 472.58 187.73 471.62 192.05 C 470.41 187.77 469.81 183.35 468.78 179.03 C 467.05 179.01 465.32 179.00 463.60 179.00 Z" />
<path fill="#000000" opacity="1.00" d=" M 500.48 176.49 C 503.40 175.44 506.49 176.65 509.49 176.40 C 511.74 176.19 514.00 176.20 516.24 176.44 C 519.34 176.76 522.53 175.36 525.55 176.51 C 527.62 178.15 526.74 180.96 526.33 183.14 C 524.89 188.89 523.93 194.75 522.36 200.46 C 521.47 203.46 517.63 203.01 515.22 202.66 C 511.54 201.78 507.47 204.14 504.10 201.90 C 502.02 196.43 501.49 190.49 499.93 184.85 C 499.50 182.12 497.72 178.57 500.48 176.49 M 501.63 179.00 C 503.08 186.02 504.67 193.02 506.26 200.01 C 507.74 199.99 509.22 199.98 510.70 199.96 C 511.48 196.59 511.64 193.03 513.11 189.86 C 513.94 193.20 514.43 196.61 515.17 199.97 C 516.66 199.98 518.16 199.98 519.66 199.98 C 521.12 192.97 522.88 186.03 524.20 178.99 C 522.59 179.00 520.99 179.02 519.39 179.06 C 518.69 183.72 517.74 188.35 517.22 193.04 C 516.43 188.36 515.71 183.68 514.90 179.01 C 513.61 179.00 512.32 178.99 511.04 178.98 C 510.18 183.39 509.69 187.87 508.59 192.23 C 507.88 187.84 507.14 183.45 506.53 179.04 C 504.89 179.01 503.25 179.00 501.63 179.00 Z" />
<path fill="#000000" opacity="1.00" d=" M 548.39 176.48 C 551.88 175.66 555.53 175.92 559.09 176.06 C 562.28 175.97 564.78 178.95 564.80 182.02 C 565.04 186.67 564.45 191.32 564.80 195.97 C 565.12 199.00 563.21 202.45 559.99 202.84 C 556.40 203.17 552.73 203.23 549.16 202.72 C 546.38 202.39 544.66 199.65 544.69 197.02 C 544.50 192.01 544.50 186.99 544.69 181.99 C 544.72 179.65 545.97 177.09 548.39 176.48 M 547.45 183.07 C 547.45 187.64 547.37 192.21 547.48 196.77 C 547.58 197.86 547.82 199.68 549.22 199.78 C 552.73 200.20 556.31 200.08 559.84 199.89 C 562.89 199.20 561.61 195.28 561.97 193.05 C 560.38 193.01 558.79 192.99 557.20 192.97 C 557.13 193.73 556.99 195.25 556.92 196.01 C 555.49 196.00 554.06 196.00 552.63 196.00 C 552.61 194.33 552.61 192.67 552.61 191.00 C 555.53 190.79 558.69 191.56 561.47 190.46 C 562.19 187.05 562.36 183.10 561.26 179.75 C 557.80 178.23 553.75 179.19 550.06 179.09 C 547.83 178.83 547.37 181.39 547.45 183.07 Z" />
<path fill="#000000" opacity="1.00" d=" M 570.47 176.50 C 573.92 175.31 577.53 176.96 581.06 176.33 C 583.21 176.19 585.97 175.48 587.56 177.45 C 589.72 179.72 589.17 183.13 589.31 185.99 C 589.08 190.90 589.74 195.88 588.90 200.73 C 587.69 203.88 583.77 202.87 581.20 202.64 C 577.63 201.88 573.97 203.78 570.48 202.50 C 568.69 201.28 568.73 198.96 568.71 197.04 C 568.71 192.01 568.70 186.98 568.71 181.96 C 568.73 180.03 568.70 177.73 570.47 176.50 M 571.62 178.87 C 571.55 185.92 571.57 192.96 571.61 200.01 C 573.34 200.00 575.09 199.99 576.84 199.98 C 576.91 194.77 576.53 189.53 577.11 184.34 C 578.46 183.97 579.82 183.62 581.18 183.29 C 581.17 188.85 581.20 194.41 581.16 199.98 C 582.90 199.99 584.64 200.00 586.39 200.01 C 586.36 193.71 586.58 187.40 586.32 181.11 C 586.14 178.32 582.96 178.91 581.10 179.31 C 577.92 180.44 574.84 178.67 571.62 178.87 Z" />
<path fill="#000000" opacity="1.00" d=" M 265.74 183.00 C 267.21 183.00 268.69 183.00 270.17 183.00 C 270.18 187.33 270.18 191.66 270.17 196.00 C 268.69 196.00 267.21 196.00 265.74 196.00 C 265.71 191.67 265.71 187.33 265.74 183.00 Z" />
<path fill="#000000" opacity="1.00" d=" M 289.85 183.22 C 291.28 183.10 292.72 183.01 294.16 182.93 C 294.12 186.57 294.35 190.23 294.08 193.88 C 293.26 195.38 291.32 195.54 289.92 196.21 C 289.60 191.88 289.66 187.54 289.85 183.22 Z" />
<path fill="#000000" opacity="1.00" d=" M 314.62 183.00 C 316.11 183.00 317.60 183.00 319.09 183.01 C 319.08 184.67 319.08 186.33 319.09 187.99 C 317.60 187.99 316.11 188.00 314.62 188.00 C 314.61 186.33 314.61 184.66 314.62 183.00 Z" />
<path fill="#000000" opacity="1.00" d=" M 422.74 183.00 C 424.21 183.00 425.69 183.00 427.17 183.00 C 427.18 187.33 427.18 191.66 427.17 196.00 C 425.69 196.00 424.21 196.00 422.74 196.00 C 422.71 191.67 422.71 187.33 422.74 183.00 Z" />
<path fill="#000000" opacity="1.00" d=" M 552.62 183.00 C 554.10 183.00 555.59 183.00 557.09 183.01 C 557.08 184.67 557.08 186.33 557.09 187.99 C 555.59 187.99 554.10 188.00 552.62 188.00 C 552.61 186.33 552.61 184.66 552.62 183.00 Z" />
<path fill="#000000" opacity="1.00" d=" M 355.57 190.00 C 357.07 190.00 358.58 190.00 360.09 190.01 C 360.08 192.00 360.08 193.99 360.09 195.99 C 358.58 195.99 357.07 196.00 355.57 196.00 C 355.55 194.00 355.55 192.00 355.57 190.00 Z" />
<path fill="#000000" opacity="1.00" d=" M 486.46 191.56 C 489.33 190.63 494.54 190.17 495.32 194.04 C 495.55 196.71 496.03 199.86 494.25 202.13 C 491.62 203.38 488.40 203.38 485.77 202.14 C 484.07 199.15 483.56 193.81 486.46 191.56 M 487.43 194.04 C 487.43 196.01 487.43 197.98 487.43 199.96 C 489.15 199.98 490.89 199.98 492.63 199.97 C 492.61 197.99 492.61 196.01 492.63 194.03 C 490.89 194.01 489.16 194.01 487.43 194.04 Z" />
</g>
<g id="#ffffffff">
<path fill="#ffffff" opacity="1.00" d=" M 239.61 43.97 C 239.50 42.03 240.93 39.97 243.03 40.08 C 248.04 39.88 253.05 40.03 258.07 40.00 C 259.77 39.98 262.25 40.30 262.63 42.35 C 263.09 46.54 262.70 50.77 262.83 54.98 C 260.42 55.00 258.01 55.00 255.60 55.01 C 255.57 52.02 255.57 49.03 255.62 46.05 C 252.69 45.99 249.76 46.00 246.83 46.00 C 246.81 57.33 246.81 68.67 246.83 80.00 C 249.76 80.00 252.68 80.01 255.61 79.95 C 255.57 76.97 255.57 73.98 255.60 70.99 C 258.01 71.00 260.42 71.00 262.83 71.02 C 262.70 75.23 263.09 79.46 262.63 83.65 C 262.25 85.71 259.77 86.01 258.07 86.00 C 253.06 85.96 248.04 86.12 243.03 85.92 C 240.94 86.03 239.50 83.97 239.61 82.03 C 239.56 69.34 239.56 56.65 239.61 43.97 Z" />
<path fill="#ffffff" opacity="1.00" d=" M 323.41 40.04 C 325.80 40.00 328.19 40.00 330.59 40.04 C 330.53 55.35 330.53 70.66 330.59 85.97 C 328.19 85.97 325.73 86.25 323.41 85.49 C 320.12 84.10 316.67 87.06 313.41 85.62 C 311.17 84.79 310.18 82.27 310.29 80.04 C 310.29 73.09 310.20 66.13 310.33 59.18 C 310.17 57.84 311.73 57.30 312.68 56.81 C 316.09 55.48 319.85 56.14 323.43 56.00 C 323.45 50.68 323.48 45.36 323.41 40.04 M 317.33 64.23 C 317.31 69.28 316.89 74.40 317.62 79.41 C 319.52 80.88 321.56 78.68 323.47 78.22 C 323.41 72.79 323.49 67.37 323.42 61.94 C 321.38 62.32 317.18 60.90 317.33 64.23 Z" />
<path fill="#ffffff" opacity="1.00" d=" M 378.60 40.00 C 385.04 40.01 391.48 39.98 397.92 40.02 C 397.91 42.01 397.91 44.00 397.92 45.99 C 393.89 46.01 389.86 46.00 385.83 46.01 C 385.81 50.67 385.81 55.33 385.83 59.99 C 389.30 60.00 392.78 60.00 396.25 60.01 C 396.25 62.00 396.25 64.00 396.25 65.99 C 392.78 66.00 389.30 66.00 385.83 66.01 C 385.81 72.67 385.81 79.32 385.84 85.98 C 383.42 86.00 381.01 86.00 378.60 86.01 C 378.56 70.67 378.57 55.34 378.60 40.00 Z" />
<path fill="#ffffff" opacity="1.00" d=" M 115.31 40.99 C 119.35 40.42 123.61 40.02 127.67 40.81 C 128.27 44.15 127.88 48.13 130.37 50.79 C 133.79 52.32 137.80 53.37 141.51 52.42 C 144.39 50.78 145.41 47.36 147.10 44.71 C 151.19 45.86 155.13 47.50 158.87 49.51 C 158.34 52.81 156.61 56.11 157.56 59.49 C 159.55 63.09 163.75 64.58 167.07 66.67 C 170.36 65.90 172.43 62.55 175.14 60.63 C 178.72 63.13 181.76 66.32 184.45 69.74 C 182.63 72.37 179.91 74.70 179.40 77.99 C 179.90 81.59 182.27 84.70 184.79 87.20 C 188.15 90.07 192.34 85.89 195.82 86.82 C 197.83 90.35 199.22 94.19 200.41 98.06 C 197.39 100.22 192.25 101.54 192.13 105.97 C 192.53 109.46 192.59 113.89 195.78 116.10 C 198.53 117.08 201.50 117.17 204.36 117.63 C 204.83 121.85 204.93 126.13 204.39 130.35 C 200.85 130.99 196.20 130.45 193.98 133.89 C 192.65 137.12 191.55 140.90 192.64 144.35 C 194.39 147.16 197.76 148.19 200.40 149.96 C 199.14 153.94 197.46 157.77 195.81 161.60 C 192.20 161.27 188.22 158.52 184.82 160.85 C 182.44 163.44 179.89 166.42 179.39 170.01 C 179.80 173.31 182.72 175.56 184.49 178.20 C 181.85 181.40 178.90 184.32 175.79 187.07 C 172.69 185.40 170.10 181.79 166.23 182.29 C 162.91 183.53 159.50 185.44 157.56 188.51 C 156.24 191.87 158.43 195.22 158.80 198.56 C 155.01 200.32 151.19 202.12 147.11 203.09 C 145.61 200.56 144.54 197.71 142.49 195.56 C 138.50 194.61 133.96 195.09 130.46 197.33 C 127.68 199.67 128.57 203.76 127.79 206.94 C 123.46 207.82 118.90 207.99 114.63 206.67 C 114.18 203.57 114.99 199.77 112.71 197.29 C 109.78 195.70 106.32 195.17 103.04 194.81 C 98.79 195.27 97.55 199.90 95.58 202.96 C 91.27 202.21 87.26 200.36 83.52 198.15 C 84.37 194.87 86.11 191.54 85.38 188.08 C 82.78 185.85 80.04 183.50 76.78 182.32 C 72.82 181.73 70.11 185.33 67.16 187.33 C 63.97 184.74 60.85 181.98 58.35 178.70 C 58.99 175.26 63.41 172.99 63.15 169.08 C 61.46 165.77 59.96 161.97 56.91 159.69 C 53.52 159.41 50.39 160.94 47.20 161.81 C 44.89 158.11 43.33 154.02 42.07 149.87 C 44.96 147.93 49.36 146.80 50.21 142.96 C 50.51 139.11 49.82 134.77 47.34 131.72 C 44.44 130.85 41.38 130.81 38.40 130.42 C 37.93 126.15 38.04 121.85 38.29 117.57 C 41.54 116.98 45.48 117.46 48.04 115.01 C 49.70 112.02 50.47 108.44 50.31 105.03 C 49.68 101.00 45.17 99.97 42.29 97.97 C 43.26 93.87 45.06 90.03 46.88 86.25 C 50.28 86.91 53.90 88.79 57.36 87.43 C 59.71 85.36 61.69 82.69 62.78 79.75 C 63.86 75.63 60.18 72.72 57.95 69.83 C 60.66 66.50 63.73 63.48 66.97 60.66 C 69.99 62.59 72.72 66.29 76.70 65.68 C 80.01 64.22 83.70 62.38 85.27 58.90 C 86.19 55.77 84.31 52.74 83.43 49.81 C 87.25 47.76 91.20 45.78 95.52 45.05 C 97.04 47.59 98.12 50.60 100.60 52.39 C 102.47 53.82 104.84 52.76 106.93 52.59 C 109.54 52.23 112.81 51.49 113.66 48.60 C 114.77 46.20 113.94 43.23 115.31 40.99 M 69.82 98.94 C 71.37 100.55 73.06 102.13 75.26 102.77 C 83.44 105.52 91.83 107.66 100.25 109.52 C 103.94 110.22 107.75 111.28 111.51 110.54 C 112.77 109.77 112.83 108.21 113.09 106.92 C 114.80 95.69 114.87 84.28 114.30 72.96 C 114.27 70.86 113.44 68.90 112.15 67.26 C 94.02 70.10 77.51 82.20 69.82 98.94 M 128.16 74.94 C 128.15 86.00 127.85 97.18 129.95 108.09 C 130.24 110.34 132.58 111.34 134.61 110.81 C 146.57 109.00 158.45 106.20 169.70 101.71 C 171.62 101.23 173.07 99.13 172.08 97.22 C 163.61 81.61 147.87 69.43 129.96 67.42 C 128.61 69.70 128.05 72.30 128.16 74.94 M 119.44 115.51 C 113.65 116.81 111.01 124.63 114.91 129.12 C 118.40 133.57 126.17 132.93 128.78 127.87 C 132.35 122.05 126.13 113.44 119.44 115.51 M 64.88 115.63 C 64.30 117.69 63.89 119.80 63.85 121.95 C 63.60 135.69 68.03 149.58 76.72 160.29 C 77.51 161.40 79.11 162.56 80.41 161.50 C 88.22 155.96 93.46 147.73 99.31 140.32 C 101.45 137.25 104.03 134.41 105.50 130.94 C 106.54 128.01 103.46 126.66 101.34 125.68 C 95.15 123.03 88.68 121.11 82.33 118.91 C 76.70 117.07 70.88 115.27 64.88 115.63 M 168.43 116.64 C 159.03 118.85 149.95 122.22 141.08 126.01 C 139.77 126.65 138.22 127.14 137.41 128.45 C 136.50 130.76 137.95 133.04 138.94 135.06 C 143.94 144.50 148.96 154.04 155.50 162.54 C 156.86 163.97 158.92 166.88 161.10 165.18 C 174.19 153.13 180.58 134.30 178.17 116.76 C 175.44 114.13 171.59 116.15 168.43 116.64 M 111.72 144.71 C 104.78 151.61 98.59 159.34 93.79 167.88 C 92.88 169.74 91.09 172.87 93.66 174.20 C 109.24 183.08 129.29 183.90 145.43 176.00 C 145.27 174.19 145.02 172.35 144.14 170.73 C 139.74 161.89 133.65 154.07 127.81 146.15 C 126.05 143.98 124.34 141.37 121.59 140.41 C 117.78 139.68 114.30 142.20 111.72 144.71 Z" />
<path fill="#ffffff" opacity="1.00" d=" M 479.00 48.00 C 481.30 48.00 483.61 48.00 485.92 48.01 C 485.91 50.66 485.91 53.31 485.91 55.96 C 487.41 55.99 488.91 56.01 490.42 56.04 C 490.41 58.01 490.41 59.98 490.42 61.96 C 488.91 61.98 487.41 62.01 485.91 62.04 C 485.92 68.01 485.89 73.97 485.93 79.93 C 487.50 79.99 489.08 80.04 490.66 80.10 C 490.62 82.05 490.62 84.00 490.64 85.94 C 487.50 85.95 484.34 86.24 481.23 85.79 C 479.44 85.53 478.99 83.54 479.03 82.03 C 478.94 75.39 479.02 68.74 479.02 62.09 C 478.20 62.04 476.55 61.94 475.73 61.89 C 475.73 59.96 475.73 58.03 475.73 56.11 C 476.55 56.06 478.20 55.96 479.02 55.91 C 478.99 53.27 478.99 50.63 479.00 48.00 Z" />
<path fill="#ffffff" opacity="1.00" d=" M 278.27 56.28 C 283.14 55.67 288.10 56.08 293.00 56.03 C 295.24 55.81 296.69 58.04 296.52 60.06 C 296.58 67.35 296.58 74.65 296.52 81.94 C 296.69 83.96 295.24 86.19 293.00 85.97 C 288.37 86.01 283.72 86.13 279.09 85.89 C 276.57 85.93 276.12 82.97 276.26 81.03 C 276.30 74.04 276.24 67.04 276.29 60.05 C 276.26 58.65 276.67 56.61 278.27 56.28 M 283.24 62.03 C 283.27 68.01 283.27 73.99 283.23 79.97 C 285.29 79.99 287.35 80.00 289.42 80.01 C 289.46 74.00 289.46 68.00 289.42 61.99 C 287.35 62.00 285.29 62.01 283.24 62.03 Z" />
<path fill="#ffffff" opacity="1.00" d=" M 344.33 59.19 C 344.29 57.26 346.14 55.87 347.98 56.03 C 352.30 55.98 356.62 55.88 360.93 56.10 C 363.00 56.01 364.06 58.17 363.97 59.97 C 364.03 63.59 364.13 67.22 363.89 70.83 C 363.84 72.27 362.28 73.12 360.97 72.97 C 357.65 73.09 354.32 72.97 351.00 73.00 C 351.00 75.33 351.00 77.67 351.00 80.00 C 353.07 80.00 355.15 80.00 357.23 80.00 C 357.25 78.67 357.28 77.33 357.31 76.00 C 359.53 76.00 361.76 76.00 364.00 75.99 C 363.66 79.11 365.04 83.09 362.48 85.53 C 358.06 86.53 353.43 85.80 348.93 86.00 C 346.86 86.27 344.27 85.24 344.33 82.82 C 344.23 74.94 344.23 67.06 344.33 59.19 M 351.00 62.00 C 351.00 64.33 351.00 66.67 351.00 69.00 C 353.09 69.00 355.17 69.00 357.27 68.99 C 357.27 66.66 357.27 64.33 357.27 62.01 C 355.17 62.00 353.09 62.00 351.00 62.00 Z" />
<path fill="#ffffff" opacity="1.00" d=" M 410.46 65.00 C 410.64 61.99 409.33 57.29 413.17 56.12 C 417.75 55.89 422.35 55.92 426.93 56.10 C 429.00 56.00 430.07 58.18 429.90 59.99 C 429.95 68.67 429.89 77.36 429.91 86.05 C 425.92 86.35 422.04 84.83 418.09 85.75 C 415.64 85.85 412.16 86.88 410.60 84.35 C 409.76 81.30 410.32 78.07 410.16 74.95 C 410.32 72.82 409.64 70.14 411.50 68.56 C 415.30 67.43 419.36 68.22 423.27 68.00 C 423.27 66.00 423.27 64.01 423.27 62.01 C 421.20 62.00 419.14 62.00 417.08 61.98 C 417.01 62.74 416.88 64.26 416.81 65.01 C 414.69 65.00 412.57 65.00 410.46 65.00 M 416.83 72.00 C 416.82 74.67 416.82 77.33 416.83 79.99 C 418.97 80.00 421.12 80.00 423.27 80.00 C 423.28 77.33 423.28 74.67 423.27 72.00 C 421.12 72.00 418.97 72.00 416.83 72.00 Z" />
<path fill="#ffffff" opacity="1.00" d=" M 443.28 60.04 C 443.09 58.27 444.15 56.21 446.11 56.11 C 450.40 55.85 454.72 56.00 459.03 56.03 C 460.60 55.95 462.57 56.61 462.77 58.42 C 463.23 61.26 462.94 64.15 462.99 67.01 C 460.72 67.00 458.46 67.00 456.19 67.00 C 456.18 65.33 456.16 63.66 456.15 62.00 C 454.17 62.00 452.20 62.01 450.24 62.03 C 450.27 68.01 450.27 73.99 450.24 79.97 C 452.20 79.99 454.17 80.00 456.15 80.00 C 456.16 78.34 456.18 76.67 456.19 75.00 C 458.46 75.00 460.72 75.00 462.99 74.99 C 462.70 78.30 463.82 82.08 462.05 85.05 C 458.75 86.93 454.60 85.62 450.97 86.02 C 448.41 85.84 444.40 86.85 443.43 83.60 C 443.07 75.76 443.36 67.89 443.28 60.04 Z" />
<path fill="#ffffff" opacity="1.00" d=" M 505.27 56.28 C 510.14 55.67 515.10 56.08 520.00 56.03 C 522.23 55.80 523.69 58.03 523.52 60.06 C 523.58 67.35 523.58 74.65 523.52 81.94 C 523.69 83.97 522.23 86.20 520.00 85.97 C 515.36 86.01 510.71 86.13 506.08 85.89 C 504.01 85.97 503.16 83.68 503.29 81.95 C 503.26 74.65 503.26 67.35 503.29 60.05 C 503.26 58.64 503.67 56.61 505.27 56.28 M 510.24 62.03 C 510.27 68.01 510.27 73.99 510.23 79.97 C 512.29 79.99 514.35 80.00 516.42 80.01 C 516.46 74.00 516.46 68.00 516.42 61.99 C 514.35 62.00 512.29 62.01 510.24 62.03 Z" />
<path fill="#ffffff" opacity="1.00" d=" M 536.26 56.01 C 539.20 55.87 542.15 55.99 544.99 56.86 C 548.39 56.66 553.67 54.17 555.46 58.46 C 555.81 61.95 555.52 65.47 555.64 68.97 C 553.22 69.00 550.81 69.00 548.41 68.96 C 548.44 66.72 548.45 64.48 548.49 62.25 C 546.77 62.53 545.07 62.82 543.37 63.13 C 543.46 70.76 543.42 78.38 543.40 86.01 C 541.01 86.00 538.63 86.00 536.25 85.97 C 536.30 75.98 536.28 65.99 536.26 56.01 Z" />
<path fill="#ffffff" opacity="1.00" d=" M 566.88 56.02 C 569.23 56.00 571.58 56.00 573.94 55.99 C 575.31 62.34 576.52 68.74 577.78 75.12 C 579.29 68.78 580.42 62.37 581.72 55.98 C 584.12 55.99 586.53 56.00 588.95 56.06 C 585.59 69.70 581.96 83.27 578.62 96.92 C 576.17 97.00 573.71 97.01 571.27 97.02 C 572.31 93.39 573.50 89.80 574.22 86.10 C 572.03 76.02 569.17 66.09 566.88 56.02 Z" />
<path fill="#ffffff" opacity="1.00" d=" M 240.81 102.01 C 242.53 102.00 244.27 102.00 246.00 102.02 C 247.32 109.39 248.38 116.81 249.77 124.16 C 251.23 116.83 252.38 109.44 253.51 102.05 C 255.29 102.02 257.07 102.01 258.86 102.03 C 256.76 113.00 254.48 123.95 252.53 134.95 C 250.76 134.98 249.00 135.00 247.23 135.00 C 244.99 124.03 242.86 113.02 240.81 102.01 Z" />
<path fill="#ffffff" opacity="1.00" d=" M 310.75 105.99 C 312.44 106.00 314.14 106.01 315.84 106.03 C 315.83 107.67 315.83 109.32 315.84 110.97 C 314.14 110.99 312.44 111.00 310.75 111.01 C 310.74 109.34 310.74 107.66 310.75 105.99 Z" />
<path fill="#ffffff" opacity="1.00" d=" M 310.76 113.99 C 312.45 114.00 314.14 114.01 315.83 114.02 C 315.81 121.01 315.81 127.99 315.83 134.98 C 314.14 134.99 312.45 135.00 310.76 135.01 C 310.73 128.00 310.73 121.00 310.76 113.99 Z" />
<path fill="#ffffff" opacity="1.00" d=" M 369.48 117.23 C 369.48 115.72 370.23 113.84 372.06 114.09 C 375.74 114.20 379.81 113.21 383.24 114.76 C 384.39 118.06 384.20 122.08 383.45 125.45 C 380.70 126.58 377.52 125.77 374.61 126.00 C 374.61 127.67 374.62 129.33 374.63 131.00 C 376.06 131.00 377.49 131.01 378.92 131.01 C 378.99 130.25 379.13 128.73 379.20 127.97 C 380.79 127.99 382.38 128.01 383.97 128.04 C 383.88 129.88 384.07 131.77 383.61 133.57 C 382.89 135.33 380.59 134.91 379.08 135.03 C 376.21 134.91 373.24 135.37 370.46 134.55 C 369.16 133.01 369.50 130.90 369.43 129.05 C 369.49 125.11 369.35 121.17 369.48 117.23 M 374.62 118.00 C 374.61 119.66 374.61 121.33 374.62 123.00 C 376.11 123.00 377.60 123.00 379.09 122.99 C 379.08 121.33 379.08 119.67 379.09 118.01 C 377.60 118.00 376.11 118.00 374.62 118.00 Z" />
<path fill="#ffffff" opacity="1.00" d=" M 437.62 113.87 C 440.84 113.67 443.92 115.44 447.09 114.31 C 448.96 113.91 452.14 113.32 452.32 116.12 C 452.58 122.41 452.36 128.71 452.39 135.01 C 450.64 135.00 448.90 134.99 447.16 134.98 C 447.20 129.41 447.17 123.85 447.18 118.28 C 445.81 118.62 444.46 118.98 443.11 119.35 C 442.54 124.54 442.91 129.77 442.84 134.98 C 441.09 134.99 439.34 135.00 437.61 135.01 C 437.57 127.96 437.55 120.92 437.62 113.87 Z" />
<path fill="#ffffff" opacity="1.00" d=" M 505.62 113.87 C 508.84 113.67 511.92 115.44 515.09 114.31 C 516.96 113.91 520.15 113.33 520.31 116.11 C 520.58 122.40 520.36 128.71 520.39 135.01 C 518.64 135.00 516.90 134.99 515.16 134.98 C 515.20 129.41 515.17 123.85 515.18 118.28 C 513.81 118.63 512.45 118.98 511.10 119.35 C 510.54 124.54 510.91 129.77 510.84 134.98 C 509.09 134.99 507.34 135.00 505.61 135.01 C 505.57 127.96 505.55 120.92 505.62 113.87 Z" />
<path fill="#ffffff" opacity="1.00" d=" M 574.32 114.37 C 578.38 113.92 582.57 113.65 586.61 114.31 C 586.86 114.59 587.34 115.14 587.59 115.42 C 588.35 121.92 587.71 128.56 587.89 135.11 C 585.94 135.02 584.02 134.77 582.09 134.49 C 579.54 134.49 576.91 135.51 574.43 134.61 C 572.87 132.77 573.60 130.19 573.40 128.00 C 573.59 126.05 572.77 122.99 575.21 122.17 C 577.82 121.83 580.46 122.03 583.10 121.99 C 583.08 120.63 583.07 119.26 583.06 117.90 C 580.96 117.90 578.69 117.78 577.72 120.02 C 576.36 120.01 575.01 119.99 573.67 119.98 C 573.70 118.09 573.88 116.21 574.32 114.37 M 578.57 125.00 C 578.55 127.00 578.55 129.00 578.57 131.00 C 580.07 131.00 581.57 130.99 583.09 130.99 C 583.08 129.00 583.08 127.00 583.09 125.01 C 581.57 125.00 580.07 125.00 578.57 125.00 Z" />
<path fill="#ffffff" opacity="1.00" d=" M 294.16 167.02 C 295.85 167.01 297.54 167.00 299.24 166.99 C 299.27 178.03 299.28 189.08 299.23 200.12 C 297.04 200.09 294.90 199.74 292.80 199.17 C 290.12 199.49 286.13 201.33 284.70 197.89 C 284.47 192.31 284.49 186.71 284.69 181.13 C 286.63 177.94 291.07 179.33 294.17 178.96 C 294.18 174.98 294.19 171.00 294.16 167.02 M 289.85 183.22 C 289.66 187.54 289.60 191.88 289.92 196.21 C 291.32 195.54 293.26 195.38 294.08 193.88 C 294.35 190.23 294.12 186.57 294.16 182.93 C 292.72 183.01 291.28 183.10 289.85 183.22 Z" />
<path fill="#ffffff" opacity="1.00" d=" M 335.46 167.55 C 337.95 166.51 340.77 167.16 343.40 167.00 C 343.41 168.30 343.42 169.61 343.43 170.92 C 342.53 170.96 340.71 171.04 339.80 171.08 C 339.82 173.67 339.82 176.25 339.81 178.84 C 340.59 178.93 342.13 179.12 342.91 179.21 C 342.89 180.40 342.89 181.60 342.90 182.79 C 342.13 182.88 340.59 183.06 339.82 183.16 C 339.83 188.76 339.80 194.37 339.84 199.98 C 338.09 199.99 336.35 200.00 334.61 200.01 C 334.59 194.48 334.49 188.94 334.67 183.42 C 334.07 183.20 332.89 182.77 332.29 182.56 C 332.30 181.52 332.30 180.48 332.29 179.44 C 332.89 179.22 334.08 178.80 334.67 178.58 C 334.78 174.93 333.81 170.96 335.46 167.55 Z" />
<path fill="#ffffff" opacity="1.00" d=" M 532.75 170.99 C 534.44 171.00 536.14 171.01 537.84 171.03 C 537.82 172.67 537.82 174.32 537.84 175.97 C 536.14 175.99 534.44 176.00 532.75 176.01 C 532.74 174.33 532.74 172.66 532.75 170.99 Z" />
<path fill="#ffffff" opacity="1.00" d=" M 399.76 173.00 C 401.47 173.00 403.18 173.00 404.91 173.00 C 404.91 174.96 404.91 176.92 404.92 178.89 C 405.69 178.94 407.24 179.06 408.01 179.11 C 408.00 180.37 408.00 181.63 408.01 182.89 C 407.24 182.94 405.69 183.05 404.92 183.11 C 404.91 187.37 404.91 191.64 404.91 195.90 C 405.75 195.95 407.43 196.05 408.27 196.10 C 408.26 197.40 408.25 198.70 408.25 200.00 C 405.69 199.85 402.94 200.47 400.53 199.42 C 398.89 194.28 400.05 188.67 399.82 183.33 C 399.20 183.14 397.96 182.76 397.34 182.56 C 397.35 181.52 397.35 180.48 397.34 179.44 C 397.96 179.25 399.18 178.86 399.80 178.67 C 399.75 176.78 399.74 174.89 399.76 173.00 Z" />
<path fill="#ffffff" opacity="1.00" d=" M 237.46 179.47 C 239.87 178.59 242.54 179.12 245.06 178.97 C 246.76 179.13 248.79 178.59 250.25 179.74 C 251.38 181.96 250.76 184.58 250.95 186.97 C 249.31 186.99 247.68 187.00 246.05 187.02 C 246.01 185.67 245.98 184.33 245.96 182.99 C 244.55 182.99 243.14 183.00 241.74 183.00 C 241.71 187.33 241.71 191.67 241.74 196.00 C 243.14 196.00 244.55 196.00 245.96 196.01 C 245.98 194.66 246.01 193.32 246.05 191.98 C 247.68 191.99 249.31 192.01 250.94 192.03 C 250.58 194.49 251.83 197.93 249.61 199.70 C 245.64 200.16 241.38 200.39 237.46 199.54 C 235.50 196.43 236.82 192.46 236.44 188.99 C 236.76 185.86 235.59 182.24 237.46 179.47 Z" />
<path fill="#ffffff" opacity="1.00" d=" M 261.16 179.27 C 265.65 178.86 270.20 178.81 274.70 179.32 C 275.59 186.03 275.60 192.97 274.69 199.68 C 270.20 200.19 265.65 200.14 261.16 199.74 C 260.24 196.22 260.65 192.58 260.57 189.00 C 260.60 185.75 260.31 182.44 261.16 179.27 M 265.74 183.00 C 265.71 187.33 265.71 191.67 265.74 196.00 C 267.21 196.00 268.69 196.00 270.17 196.00 C 270.18 191.66 270.18 187.33 270.17 183.00 C 268.69 183.00 267.21 183.00 265.74 183.00 Z" />
<path fill="#ffffff" opacity="1.00" d=" M 310.26 179.30 C 314.53 179.18 319.22 178.15 323.25 179.76 C 324.37 183.07 324.22 187.08 323.44 190.45 C 320.71 191.59 317.52 190.77 314.61 191.00 C 314.61 192.67 314.62 194.33 314.63 196.00 C 316.06 196.00 317.49 196.00 318.92 196.01 C 318.99 195.25 319.13 193.73 319.20 192.97 C 320.79 192.99 322.38 193.01 323.97 193.05 C 323.61 195.28 324.90 199.20 321.84 199.89 C 318.06 199.99 314.16 200.41 310.45 199.55 C 308.84 197.39 309.63 194.52 309.43 192.03 C 309.68 187.80 308.78 183.38 310.26 179.30 M 314.62 183.00 C 314.61 184.66 314.61 186.33 314.62 188.00 C 316.11 188.00 317.60 187.99 319.09 187.99 C 319.08 186.33 319.08 184.67 319.09 183.01 C 317.60 183.00 316.11 183.00 314.62 183.00 Z" />
<path fill="#ffffff" opacity="1.00" d=" M 352.29 179.23 C 355.77 178.78 359.33 178.93 362.84 179.10 C 364.38 179.11 364.89 180.78 364.87 182.05 C 364.99 188.07 364.89 194.09 364.89 200.11 C 363.40 200.01 361.92 199.92 360.45 199.68 C 357.46 199.00 354.37 200.71 351.43 199.60 C 349.86 197.78 350.61 195.18 350.40 193.00 C 350.60 191.05 349.77 187.99 352.21 187.17 C 354.82 186.82 357.46 187.03 360.10 186.99 C 360.08 185.63 360.07 184.26 360.06 182.90 C 357.96 182.90 355.68 182.78 354.71 185.02 C 353.37 185.01 352.03 184.99 350.70 184.99 C 350.94 183.11 350.09 180.18 352.29 179.23 M 355.57 190.00 C 355.55 192.00 355.55 194.00 355.57 196.00 C 357.07 196.00 358.58 195.99 360.09 195.99 C 360.08 193.99 360.08 192.00 360.09 190.01 C 358.58 190.00 357.07 190.00 355.57 190.00 Z" />
<path fill="#ffffff" opacity="1.00" d=" M 375.46 179.46 C 379.38 178.62 383.64 178.83 387.61 179.31 C 389.83 181.06 388.58 184.51 388.94 186.97 C 387.31 186.99 385.68 187.00 384.05 187.02 C 384.01 185.67 383.98 184.33 383.96 182.99 C 382.55 182.99 381.14 183.00 379.74 183.00 C 379.71 187.33 379.71 191.67 379.74 196.00 C 381.14 196.00 382.55 196.00 383.96 196.01 C 383.98 194.66 384.01 193.32 384.05 191.98 C 385.68 191.99 387.31 192.01 388.95 192.03 C 388.57 194.49 389.83 197.94 387.61 199.69 C 383.87 200.30 379.98 200.08 376.20 199.82 C 373.43 198.45 374.76 194.53 374.43 192.04 C 374.91 187.90 373.37 183.23 375.46 179.46 Z" />
<path fill="#ffffff" opacity="1.00" d=" M 418.16 179.26 C 422.65 178.86 427.20 178.81 431.69 179.32 C 432.60 186.03 432.59 192.96 431.70 199.68 C 427.21 200.19 422.65 200.14 418.15 199.73 C 417.24 196.22 417.65 192.58 417.57 189.00 C 417.60 185.75 417.31 182.44 418.16 179.26 M 422.74 183.00 C 422.71 187.33 422.71 191.67 422.74 196.00 C 424.21 196.00 425.69 196.00 427.17 196.00 C 427.18 191.66 427.18 187.33 427.17 183.00 C 425.69 183.00 424.21 183.00 422.74 183.00 Z" />
<path fill="#ffffff" opacity="1.00" d=" M 441.62 178.86 C 443.78 178.92 445.91 179.27 448.01 179.75 C 450.47 179.62 453.81 177.73 455.47 180.48 C 455.75 182.96 455.59 185.47 455.63 187.96 C 453.88 187.98 452.12 188.00 450.37 188.01 C 450.38 186.44 450.41 184.87 450.44 183.30 C 449.51 183.49 447.66 183.87 446.74 184.05 C 446.72 189.36 446.69 194.66 446.75 199.96 C 445.03 199.98 443.32 200.00 441.61 200.02 C 441.56 192.97 441.55 185.91 441.62 178.86 Z" />
<path fill="#ffffff" opacity="1.00" d=" M 463.60 179.00 C 465.32 179.00 467.05 179.01 468.78 179.03 C 469.81 183.35 470.41 187.77 471.62 192.05 C 472.58 187.73 473.48 183.40 474.39 179.07 C 476.10 179.02 477.82 179.00 479.56 178.99 C 476.90 188.96 474.34 198.97 472.00 209.02 C 470.29 209.00 468.58 208.99 466.89 208.98 C 467.38 205.25 469.63 201.55 468.42 197.77 C 466.93 191.48 465.06 185.29 463.60 179.00 Z" />
<path fill="#ffffff" opacity="1.00" d=" M 501.63 179.00 C 503.25 179.00 504.89 179.01 506.53 179.04 C 507.14 183.45 507.88 187.84 508.59 192.23 C 509.69 187.87 510.18 183.39 511.04 178.98 C 512.32 178.99 513.61 179.00 514.90 179.01 C 515.71 183.68 516.43 188.36 517.22 193.04 C 517.74 188.35 518.69 183.72 519.39 179.06 C 520.99 179.02 522.59 179.00 524.20 178.99 C 522.88 186.03 521.12 192.97 519.66 199.98 C 518.16 199.98 516.66 199.98 515.17 199.97 C 514.43 196.61 513.94 193.20 513.11 189.86 C 511.64 193.03 511.48 196.59 510.70 199.96 C 509.22 199.98 507.74 199.99 506.26 200.01 C 504.67 193.02 503.08 186.02 501.63 179.00 Z" />
<path fill="#ffffff" opacity="1.00" d=" M 532.76 178.99 C 534.44 179.00 536.14 179.00 537.83 179.02 C 537.81 186.00 537.81 192.99 537.83 199.98 C 536.14 199.99 534.45 200.00 532.76 200.01 C 532.73 193.00 532.73 186.00 532.76 178.99 Z" />
<path fill="#ffffff" opacity="1.00" d=" M 547.45 183.07 C 547.37 181.39 547.83 178.83 550.06 179.09 C 553.75 179.19 557.80 178.23 561.26 179.75 C 562.36 183.10 562.19 187.05 561.47 190.46 C 558.69 191.56 555.53 190.79 552.61 191.00 C 552.61 192.67 552.61 194.33 552.63 196.00 C 554.06 196.00 555.49 196.00 556.92 196.01 C 556.99 195.25 557.13 193.73 557.20 192.97 C 558.79 192.99 560.38 193.01 561.97 193.05 C 561.61 195.28 562.89 199.20 559.84 199.89 C 556.31 200.08 552.73 200.20 549.22 199.78 C 547.82 199.68 547.58 197.86 547.48 196.77 C 547.37 192.21 547.45 187.64 547.45 183.07 M 552.62 183.00 C 552.61 184.66 552.61 186.33 552.62 188.00 C 554.10 188.00 555.59 187.99 557.09 187.99 C 557.08 186.33 557.08 184.67 557.09 183.01 C 555.59 183.00 554.10 183.00 552.62 183.00 Z" />
<path fill="#ffffff" opacity="1.00" d=" M 571.62 178.87 C 574.84 178.67 577.92 180.44 581.10 179.31 C 582.96 178.91 586.14 178.32 586.32 181.11 C 586.58 187.40 586.36 193.71 586.39 200.01 C 584.64 200.00 582.90 199.99 581.16 199.98 C 581.20 194.41 581.17 188.85 581.18 183.29 C 579.82 183.62 578.46 183.97 577.11 184.34 C 576.53 189.53 576.91 194.77 576.84 199.98 C 575.09 199.99 573.34 200.00 571.61 200.01 C 571.57 192.96 571.55 185.92 571.62 178.87 Z" />
<path fill="#ffffff" opacity="1.00" d=" M 487.43 194.04 C 489.16 194.01 490.89 194.01 492.63 194.03 C 492.61 196.01 492.61 197.99 492.63 199.97 C 490.89 199.98 489.15 199.98 487.43 199.96 C 487.43 197.98 487.43 196.01 487.43 194.04 Z" />
</g>
</svg>
